M48
;GenerationSoftware,Autodesk,EAGLE,9.7.0*%
;CreationDate,2023-11-29T23:22:20Z*%
FMAT,2
ICI,OFF
METRIC,TZ,000.000
T2C1.000
T1C3.200
%
G90
M71
T1
X31000Y21000
X74000Y14000
T2
X53340Y54610
X53340Y52070
X53340Y49530
X53340Y46990
X53340Y44450
X53340Y41910
X53340Y39370
X68580Y39370
X68580Y41910
X68580Y44450
X68580Y46990
X68580Y49530
X68580Y52070
X68580Y54610
X47326Y33960
X47326Y36500
X47326Y39040
X47326Y41580
X47326Y44120
X47326Y46660
X47326Y49200
X47326Y51740
X47326Y54280
X47326Y56820
X32086Y39040
X32086Y41580
X32086Y44120
X32086Y46660
X32086Y49200
X32086Y51740
X54610Y15240
X57150Y15240
X66150Y15240
X68690Y15240
X54610Y33240
X57150Y33240
X66150Y33240
X68690Y33240
X34290Y25400
X36830Y25400
X39370Y25400
X41910Y25400
X44450Y25400
X73485Y50260
X73485Y52800
X73485Y55340
X73660Y46180
X73660Y39180
X73740Y34940
X73740Y30940
M30