G04 EAGLE Gerber RS-274X export*
G75*
%MOMM*%
%FSLAX34Y34*%
%LPD*%
%INBottom Copper*%
%IPPOS*%
%AMOC8*
5,1,8,0,0,1.08239X$1,22.5*%
G01*
G04 Define Apertures*
%ADD10C,1.700000*%
%ADD11C,1.508000*%
%ADD12R,3.251200X6.451600*%
%ADD13C,1.508000*%
%ADD14C,2.184400*%
%ADD15C,0.508000*%
%ADD16C,0.406400*%
D10*
X533400Y546100D02*
X516400Y546100D01*
X516400Y520700D02*
X533400Y520700D01*
X533400Y495300D02*
X516400Y495300D01*
X516400Y469900D02*
X533400Y469900D01*
X533400Y444500D02*
X516400Y444500D01*
X516400Y419100D02*
X533400Y419100D01*
X533400Y393700D02*
X516400Y393700D01*
X685800Y393700D02*
X702800Y393700D01*
X702800Y419100D02*
X685800Y419100D01*
X685800Y444500D02*
X702800Y444500D01*
X702800Y469900D02*
X685800Y469900D01*
X685800Y495300D02*
X702800Y495300D01*
X702800Y520700D02*
X685800Y520700D01*
X685800Y546100D02*
X702800Y546100D01*
D11*
X480804Y339604D02*
X465724Y339604D01*
X465724Y365004D02*
X480804Y365004D01*
X480804Y390404D02*
X465724Y390404D01*
X465724Y415804D02*
X480804Y415804D01*
X480804Y441204D02*
X465724Y441204D01*
X465724Y466604D02*
X480804Y466604D01*
X480804Y492004D02*
X465724Y492004D01*
X465724Y517404D02*
X480804Y517404D01*
X480804Y542804D02*
X465724Y542804D01*
X465724Y568204D02*
X480804Y568204D01*
X328404Y390404D02*
X313324Y390404D01*
X313324Y415804D02*
X328404Y415804D01*
X328404Y441204D02*
X313324Y441204D01*
X313324Y466604D02*
X328404Y466604D01*
X328404Y492004D02*
X313324Y492004D01*
X313324Y517404D02*
X328404Y517404D01*
X538560Y152400D02*
X553640Y152400D01*
X563960Y152400D02*
X579040Y152400D01*
X653960Y152400D02*
X669040Y152400D01*
X679360Y152400D02*
X694440Y152400D01*
X553640Y332400D02*
X538560Y332400D01*
X563960Y332400D02*
X579040Y332400D01*
X653960Y332400D02*
X669040Y332400D01*
X679360Y332400D02*
X694440Y332400D01*
D12*
X342900Y152400D03*
X444500Y152400D03*
D13*
X342900Y254000D03*
X368300Y254000D03*
X393700Y254000D03*
X419100Y254000D03*
X444500Y254000D03*
D14*
X734850Y502600D03*
X734850Y528000D03*
X734850Y553400D03*
X736600Y461800D03*
X736600Y391800D03*
X737400Y349400D03*
X737400Y309400D03*
D15*
X360000Y152400D02*
X342900Y152400D01*
X360000Y152400D02*
X361696Y152400D01*
D16*
X661500Y152400D02*
X686900Y152400D01*
D15*
X661500Y152400D02*
X474296Y339604D01*
X473264Y339604D01*
X473264Y243264D01*
X382400Y152400D01*
X361696Y152400D01*
D16*
X537308Y332400D02*
X546100Y332400D01*
X537308Y332400D02*
X479304Y390404D01*
X473264Y390404D01*
X570000Y332400D02*
X571500Y332400D01*
X570000Y332400D02*
X546100Y332400D01*
X685800Y520700D02*
X702800Y520700D01*
X688095Y361945D02*
X601045Y361945D01*
D15*
X571500Y152400D02*
X546100Y152400D01*
D16*
X444500Y152400D01*
X737400Y187208D02*
X737400Y309400D01*
D15*
X571500Y152400D02*
X603900Y120000D01*
X690000Y120000D01*
X711300Y141300D01*
X711300Y161108D02*
X737400Y187208D01*
X711300Y161108D02*
X711300Y141300D01*
X688095Y358705D02*
X688095Y361945D01*
X688095Y358705D02*
X737400Y309400D01*
X601045Y361945D02*
X599545Y361945D01*
X570000Y332400D01*
D16*
X714856Y508644D02*
X702800Y520700D01*
X714856Y388706D02*
X688095Y361945D01*
X714856Y388706D02*
X714856Y508644D01*
X625440Y296340D02*
X547968Y296340D01*
X479304Y365004D01*
X473264Y365004D01*
X473264Y415804D02*
X465724Y415804D01*
X454628Y404708D01*
X454628Y383640D01*
X473264Y365004D01*
X473264Y492004D02*
X465724Y492004D01*
X432425Y458705D01*
X432425Y456643D01*
X473264Y415804D01*
X473264Y568204D02*
X465724Y568204D01*
X449075Y551555D01*
X449075Y516193D01*
X473264Y492004D01*
X473264Y568204D02*
X660000Y568204D01*
X663696Y568204D01*
X661500Y332400D02*
X686900Y332400D01*
X661500Y332400D02*
X625440Y296340D01*
X663696Y568204D02*
X747572Y568204D01*
X755776Y560000D01*
X755776Y480000D01*
X737576Y461800D01*
X736600Y461800D01*
X480804Y542804D02*
X473264Y542804D01*
X480804Y542804D02*
X504344Y519264D01*
X504344Y464906D01*
X524750Y444500D01*
X533400Y444500D01*
X480804Y517404D02*
X473264Y517404D01*
X480804Y517404D02*
X498602Y499606D01*
X498602Y449169D01*
X500888Y442962D02*
X524750Y419100D01*
X533400Y419100D01*
X500888Y442962D02*
X500888Y446883D01*
X498602Y449169D01*
X495300Y444568D02*
X473264Y466604D01*
X495300Y444568D02*
X495300Y431800D01*
X504344Y422756D01*
X504344Y414106D01*
X524750Y393700D01*
X533400Y393700D01*
X673744Y381644D02*
X685800Y393700D01*
X673744Y381644D02*
X511406Y381644D01*
X495300Y419168D02*
X473264Y441204D01*
X495300Y419168D02*
X495300Y397750D01*
X511406Y381644D01*
X328404Y415804D02*
X320864Y415804D01*
X328404Y415804D02*
X368300Y375908D01*
X368300Y254000D01*
X328404Y492004D02*
X320864Y492004D01*
X328404Y492004D02*
X430196Y390212D01*
X430196Y249404D01*
X423696Y242904D01*
X404796Y242904D01*
X393700Y254000D01*
X320864Y390404D02*
X313324Y390404D01*
X302228Y401500D01*
X302228Y420400D01*
X308728Y426900D01*
X333000Y426900D01*
X419100Y340800D01*
X419100Y254000D01*
X328404Y517404D02*
X320864Y517404D01*
X328404Y517404D02*
X444500Y401308D01*
X444500Y254000D01*
X727550Y546100D02*
X734850Y553400D01*
X727550Y546100D02*
X685800Y546100D01*
X736600Y391800D02*
X736600Y350200D01*
X737400Y349400D01*
X734850Y523075D02*
X734850Y528000D01*
X734850Y523075D02*
X749328Y508597D01*
X749328Y495003D01*
X722122Y467797D01*
X722122Y406278D01*
X736600Y391800D01*
M02*
