G04 EAGLE Gerber RS-274X export*
G75*
%MOMM*%
%FSLAX34Y34*%
%LPD*%
%INSilkscreen Top*%
%IPPOS*%
%AMOC8*
5,1,8,0,0,1.08239X$1,22.5*%
G01*
G04 Define Apertures*
%ADD10C,0.127000*%
%ADD11C,0.076200*%
%ADD12C,0.508000*%
%ADD13C,0.152400*%
G36*
X610772Y454660D02*
X609601Y454660D01*
X609601Y463303D01*
X613238Y463303D01*
X613591Y463292D01*
X613924Y463260D01*
X614236Y463207D01*
X614528Y463133D01*
X614799Y463037D01*
X615049Y462920D01*
X615280Y462782D01*
X615489Y462622D01*
X615676Y462443D01*
X615838Y462247D01*
X615975Y462033D01*
X616087Y461802D01*
X616174Y461553D01*
X616237Y461287D01*
X616274Y461003D01*
X616287Y460702D01*
X616274Y460403D01*
X616237Y460120D01*
X616174Y459853D01*
X616086Y459601D01*
X615974Y459365D01*
X615836Y459145D01*
X615674Y458940D01*
X615486Y458751D01*
X615277Y458582D01*
X615050Y458435D01*
X614805Y458310D01*
X614542Y458209D01*
X614261Y458129D01*
X613963Y458073D01*
X613646Y458039D01*
X613312Y458028D01*
X610772Y458028D01*
X610772Y454660D01*
G37*
%LPC*%
G36*
X613146Y458954D02*
X613384Y458961D01*
X613606Y458981D01*
X613813Y459015D01*
X614005Y459062D01*
X614181Y459123D01*
X614342Y459198D01*
X614488Y459286D01*
X614618Y459388D01*
X614733Y459503D01*
X614833Y459632D01*
X614917Y459774D01*
X614986Y459930D01*
X615040Y460100D01*
X615078Y460283D01*
X615101Y460480D01*
X615109Y460690D01*
X615101Y460893D01*
X615077Y461082D01*
X615038Y461259D01*
X614983Y461422D01*
X614912Y461573D01*
X614826Y461710D01*
X614724Y461834D01*
X614606Y461946D01*
X614472Y462044D01*
X614323Y462129D01*
X614158Y462201D01*
X613977Y462260D01*
X613781Y462305D01*
X613568Y462338D01*
X613341Y462358D01*
X613097Y462364D01*
X610772Y462364D01*
X610772Y458954D01*
X613146Y458954D01*
G37*
%LPD*%
G36*
X599659Y454660D02*
X592851Y454660D01*
X592851Y463303D01*
X599408Y463303D01*
X599408Y462346D01*
X594022Y462346D01*
X594022Y459573D01*
X599040Y459573D01*
X599040Y458629D01*
X594022Y458629D01*
X594022Y455617D01*
X599659Y455617D01*
X599659Y454660D01*
G37*
G36*
X604427Y454537D02*
X604043Y454546D01*
X603679Y454572D01*
X603336Y454615D01*
X603014Y454675D01*
X602712Y454752D01*
X602432Y454846D01*
X602172Y454958D01*
X601932Y455086D01*
X601714Y455232D01*
X601516Y455395D01*
X601339Y455575D01*
X601183Y455773D01*
X601047Y455987D01*
X600933Y456219D01*
X600839Y456467D01*
X600765Y456733D01*
X601900Y456960D01*
X601956Y456772D01*
X602026Y456597D01*
X602110Y456434D01*
X602207Y456285D01*
X602318Y456148D01*
X602443Y456025D01*
X602582Y455914D01*
X602734Y455816D01*
X602901Y455731D01*
X603082Y455657D01*
X603278Y455594D01*
X603487Y455543D01*
X603712Y455503D01*
X603950Y455474D01*
X604470Y455451D01*
X604746Y455457D01*
X605005Y455476D01*
X605249Y455506D01*
X605476Y455549D01*
X605686Y455603D01*
X605881Y455670D01*
X606059Y455750D01*
X606222Y455841D01*
X606366Y455944D01*
X606491Y456058D01*
X606597Y456184D01*
X606684Y456322D01*
X606751Y456470D01*
X606800Y456630D01*
X606829Y456802D01*
X606838Y456985D01*
X606826Y457186D01*
X606790Y457368D01*
X606729Y457530D01*
X606645Y457672D01*
X606539Y457798D01*
X606413Y457913D01*
X606267Y458016D01*
X606102Y458107D01*
X605719Y458265D01*
X605268Y458396D01*
X604194Y458647D01*
X603713Y458761D01*
X603293Y458874D01*
X602936Y458988D01*
X602639Y459101D01*
X602388Y459218D01*
X602165Y459341D01*
X601969Y459471D01*
X601802Y459607D01*
X601658Y459753D01*
X601531Y459910D01*
X601423Y460079D01*
X601333Y460260D01*
X601262Y460454D01*
X601211Y460662D01*
X601180Y460884D01*
X601170Y461119D01*
X601184Y461389D01*
X601223Y461642D01*
X601290Y461880D01*
X601383Y462102D01*
X601502Y462308D01*
X601648Y462498D01*
X601821Y462672D01*
X602020Y462831D01*
X602244Y462971D01*
X602490Y463094D01*
X602760Y463197D01*
X603053Y463281D01*
X603368Y463347D01*
X603707Y463394D01*
X604068Y463422D01*
X604452Y463432D01*
X604809Y463425D01*
X605145Y463403D01*
X605459Y463368D01*
X605751Y463319D01*
X606021Y463256D01*
X606270Y463178D01*
X606498Y463086D01*
X606703Y462981D01*
X606891Y462858D01*
X607064Y462716D01*
X607222Y462553D01*
X607366Y462371D01*
X607495Y462169D01*
X607610Y461947D01*
X607710Y461706D01*
X607795Y461444D01*
X606642Y461242D01*
X606525Y461562D01*
X606366Y461835D01*
X606163Y462060D01*
X605918Y462239D01*
X605626Y462374D01*
X605282Y462471D01*
X604886Y462529D01*
X604440Y462548D01*
X603952Y462527D01*
X603526Y462462D01*
X603336Y462414D01*
X603161Y462355D01*
X603001Y462285D01*
X602857Y462205D01*
X602729Y462114D01*
X602618Y462012D01*
X602524Y461900D01*
X602448Y461777D01*
X602388Y461644D01*
X602345Y461500D01*
X602320Y461345D01*
X602311Y461180D01*
X602324Y460990D01*
X602364Y460816D01*
X602430Y460660D01*
X602523Y460521D01*
X602640Y460396D01*
X602781Y460280D01*
X602946Y460175D01*
X603133Y460079D01*
X603382Y459984D01*
X603730Y459878D01*
X604722Y459635D01*
X605516Y459448D01*
X605903Y459343D01*
X606274Y459221D01*
X606624Y459077D01*
X606952Y458911D01*
X607247Y458713D01*
X607501Y458475D01*
X607611Y458341D01*
X607708Y458195D01*
X607793Y458037D01*
X607866Y457868D01*
X607923Y457686D01*
X607965Y457488D01*
X607989Y457275D01*
X607997Y457046D01*
X607983Y456756D01*
X607939Y456482D01*
X607866Y456225D01*
X607764Y455985D01*
X607632Y455762D01*
X607471Y455556D01*
X607281Y455366D01*
X607062Y455194D01*
X606816Y455040D01*
X606547Y454907D01*
X606253Y454794D01*
X605936Y454701D01*
X605594Y454630D01*
X605229Y454578D01*
X604840Y454548D01*
X604427Y454537D01*
G37*
G36*
X635146Y454537D02*
X634762Y454546D01*
X634398Y454572D01*
X634055Y454615D01*
X633733Y454675D01*
X633431Y454752D01*
X633150Y454846D01*
X632890Y454958D01*
X632651Y455086D01*
X632433Y455232D01*
X632235Y455395D01*
X632058Y455575D01*
X631902Y455773D01*
X631766Y455987D01*
X631651Y456219D01*
X631557Y456467D01*
X631484Y456733D01*
X632619Y456960D01*
X632675Y456772D01*
X632745Y456597D01*
X632828Y456434D01*
X632926Y456285D01*
X633037Y456148D01*
X633162Y456025D01*
X633301Y455914D01*
X633453Y455816D01*
X633620Y455731D01*
X633801Y455657D01*
X633996Y455594D01*
X634206Y455543D01*
X634430Y455503D01*
X634669Y455474D01*
X635189Y455451D01*
X635465Y455457D01*
X635724Y455476D01*
X635967Y455506D01*
X636194Y455549D01*
X636405Y455603D01*
X636600Y455670D01*
X636778Y455750D01*
X636940Y455841D01*
X637085Y455944D01*
X637210Y456058D01*
X637316Y456184D01*
X637403Y456322D01*
X637470Y456470D01*
X637518Y456630D01*
X637547Y456802D01*
X637557Y456985D01*
X637545Y457186D01*
X637509Y457368D01*
X637448Y457530D01*
X637364Y457672D01*
X637257Y457798D01*
X637131Y457913D01*
X636986Y458016D01*
X636821Y458107D01*
X636437Y458265D01*
X635987Y458396D01*
X634913Y458647D01*
X634432Y458761D01*
X634012Y458874D01*
X633654Y458988D01*
X633358Y459101D01*
X633107Y459218D01*
X632884Y459341D01*
X632688Y459471D01*
X632521Y459607D01*
X632377Y459753D01*
X632250Y459910D01*
X632142Y460079D01*
X632052Y460260D01*
X631980Y460454D01*
X631930Y460662D01*
X631899Y460884D01*
X631889Y461119D01*
X631902Y461389D01*
X631942Y461642D01*
X632009Y461880D01*
X632101Y462102D01*
X632221Y462308D01*
X632367Y462498D01*
X632540Y462672D01*
X632739Y462831D01*
X632962Y462971D01*
X633209Y463094D01*
X633479Y463197D01*
X633771Y463281D01*
X634087Y463347D01*
X634425Y463394D01*
X634787Y463422D01*
X635171Y463432D01*
X635528Y463425D01*
X635864Y463403D01*
X636177Y463368D01*
X636470Y463319D01*
X636740Y463256D01*
X636989Y463178D01*
X637216Y463086D01*
X637422Y462981D01*
X637609Y462858D01*
X637782Y462716D01*
X637941Y462553D01*
X638084Y462371D01*
X638214Y462169D01*
X638328Y461947D01*
X638428Y461706D01*
X638514Y461444D01*
X637361Y461242D01*
X637244Y461562D01*
X637085Y461835D01*
X636882Y462060D01*
X636637Y462239D01*
X636344Y462374D01*
X636000Y462471D01*
X635605Y462529D01*
X635159Y462548D01*
X634671Y462527D01*
X634245Y462462D01*
X634054Y462414D01*
X633880Y462355D01*
X633720Y462285D01*
X633576Y462205D01*
X633448Y462114D01*
X633337Y462012D01*
X633243Y461900D01*
X633166Y461777D01*
X633107Y461644D01*
X633064Y461500D01*
X633039Y461345D01*
X633030Y461180D01*
X633043Y460990D01*
X633083Y460816D01*
X633149Y460660D01*
X633242Y460521D01*
X633359Y460396D01*
X633500Y460280D01*
X633664Y460175D01*
X633852Y460079D01*
X634101Y459984D01*
X634448Y459878D01*
X635441Y459635D01*
X636235Y459448D01*
X636622Y459343D01*
X636993Y459221D01*
X637343Y459077D01*
X637670Y458911D01*
X637966Y458713D01*
X638219Y458475D01*
X638330Y458341D01*
X638427Y458195D01*
X638512Y458037D01*
X638584Y457868D01*
X638642Y457686D01*
X638683Y457488D01*
X638708Y457275D01*
X638716Y457046D01*
X638702Y456756D01*
X638658Y456482D01*
X638585Y456225D01*
X638482Y455985D01*
X638351Y455762D01*
X638190Y455556D01*
X638000Y455366D01*
X637781Y455194D01*
X637535Y455040D01*
X637265Y454907D01*
X636972Y454794D01*
X636654Y454701D01*
X636313Y454630D01*
X635948Y454578D01*
X635559Y454548D01*
X635146Y454537D01*
G37*
G36*
X620448Y454537D02*
X620128Y454547D01*
X619824Y454574D01*
X619538Y454621D01*
X619267Y454685D01*
X619014Y454769D01*
X618777Y454870D01*
X618557Y454991D01*
X618353Y455129D01*
X618167Y455286D01*
X618001Y455461D01*
X617855Y455653D01*
X617729Y455863D01*
X617623Y456091D01*
X617537Y456336D01*
X617470Y456600D01*
X617423Y456881D01*
X618564Y456985D01*
X618642Y456625D01*
X618765Y456314D01*
X618933Y456050D01*
X619146Y455835D01*
X619404Y455667D01*
X619549Y455601D01*
X619706Y455547D01*
X619875Y455505D01*
X620054Y455475D01*
X620245Y455457D01*
X620448Y455451D01*
X620650Y455458D01*
X620842Y455477D01*
X621023Y455509D01*
X621192Y455554D01*
X621350Y455612D01*
X621497Y455682D01*
X621633Y455766D01*
X621757Y455862D01*
X621869Y455971D01*
X621965Y456093D01*
X622047Y456227D01*
X622114Y456373D01*
X622166Y456532D01*
X622203Y456703D01*
X622225Y456887D01*
X622233Y457083D01*
X622224Y457254D01*
X622199Y457416D01*
X622156Y457568D01*
X622097Y457711D01*
X622020Y457844D01*
X621927Y457967D01*
X621817Y458080D01*
X621690Y458184D01*
X621546Y458277D01*
X621388Y458357D01*
X621215Y458425D01*
X621026Y458481D01*
X620823Y458524D01*
X620605Y458555D01*
X620371Y458573D01*
X620122Y458580D01*
X619497Y458580D01*
X619497Y459537D01*
X620098Y459537D01*
X620318Y459543D01*
X620526Y459561D01*
X620721Y459592D01*
X620904Y459635D01*
X621073Y459691D01*
X621230Y459759D01*
X621374Y459839D01*
X621506Y459932D01*
X621623Y460036D01*
X621724Y460149D01*
X621810Y460272D01*
X621881Y460404D01*
X621935Y460545D01*
X621974Y460696D01*
X621998Y460857D01*
X622006Y461027D01*
X621999Y461196D01*
X621980Y461355D01*
X621948Y461506D01*
X621904Y461647D01*
X621776Y461903D01*
X621598Y462122D01*
X621490Y462216D01*
X621369Y462298D01*
X621236Y462367D01*
X621091Y462423D01*
X620933Y462467D01*
X620763Y462499D01*
X620581Y462518D01*
X620386Y462524D01*
X620039Y462500D01*
X619726Y462430D01*
X619448Y462313D01*
X619205Y462150D01*
X619004Y461943D01*
X618849Y461699D01*
X618741Y461416D01*
X618681Y461095D01*
X617571Y461180D01*
X617611Y461438D01*
X617672Y461682D01*
X617752Y461911D01*
X617852Y462125D01*
X617972Y462325D01*
X618112Y462510D01*
X618271Y462681D01*
X618451Y462837D01*
X618647Y462976D01*
X618857Y463097D01*
X619080Y463199D01*
X619317Y463283D01*
X619567Y463348D01*
X619830Y463394D01*
X620108Y463422D01*
X620398Y463432D01*
X620715Y463422D01*
X621012Y463394D01*
X621292Y463347D01*
X621554Y463281D01*
X621798Y463196D01*
X622023Y463092D01*
X622230Y462969D01*
X622420Y462827D01*
X622589Y462669D01*
X622735Y462496D01*
X622859Y462307D01*
X622960Y462104D01*
X623039Y461887D01*
X623095Y461654D01*
X623129Y461406D01*
X623140Y461144D01*
X623133Y460941D01*
X623111Y460749D01*
X623075Y460566D01*
X623025Y460393D01*
X622959Y460230D01*
X622880Y460076D01*
X622786Y459932D01*
X622677Y459797D01*
X622555Y459673D01*
X622419Y459559D01*
X622109Y459363D01*
X621746Y459208D01*
X621331Y459095D01*
X621331Y459070D01*
X621566Y459037D01*
X621789Y458991D01*
X621997Y458930D01*
X622193Y458856D01*
X622375Y458768D01*
X622543Y458666D01*
X622698Y458550D01*
X622840Y458420D01*
X622966Y458279D01*
X623076Y458130D01*
X623169Y457971D01*
X623245Y457804D01*
X623304Y457628D01*
X623346Y457443D01*
X623371Y457249D01*
X623380Y457046D01*
X623368Y456756D01*
X623332Y456482D01*
X623273Y456225D01*
X623189Y455985D01*
X623082Y455762D01*
X622952Y455556D01*
X622797Y455366D01*
X622619Y455194D01*
X622419Y455040D01*
X622198Y454907D01*
X621957Y454794D01*
X621696Y454701D01*
X621414Y454630D01*
X621112Y454578D01*
X620790Y454548D01*
X620448Y454537D01*
G37*
G36*
X642791Y454537D02*
X642471Y454547D01*
X642168Y454574D01*
X641881Y454621D01*
X641611Y454685D01*
X641358Y454769D01*
X641121Y454870D01*
X640900Y454991D01*
X640697Y455129D01*
X640511Y455286D01*
X640345Y455461D01*
X640199Y455653D01*
X640073Y455863D01*
X639967Y456091D01*
X639880Y456336D01*
X639814Y456600D01*
X639767Y456881D01*
X640908Y456985D01*
X640986Y456625D01*
X641109Y456314D01*
X641276Y456050D01*
X641489Y455835D01*
X641747Y455667D01*
X641893Y455601D01*
X642050Y455547D01*
X642219Y455505D01*
X642398Y455475D01*
X642589Y455457D01*
X642791Y455451D01*
X642994Y455458D01*
X643186Y455477D01*
X643366Y455509D01*
X643536Y455554D01*
X643694Y455612D01*
X643841Y455682D01*
X643976Y455766D01*
X644101Y455862D01*
X644212Y455971D01*
X644309Y456093D01*
X644391Y456227D01*
X644457Y456373D01*
X644509Y456532D01*
X644547Y456703D01*
X644569Y456887D01*
X644576Y457083D01*
X644568Y457254D01*
X644542Y457416D01*
X644500Y457568D01*
X644441Y457711D01*
X644364Y457844D01*
X644271Y457967D01*
X644161Y458080D01*
X644033Y458184D01*
X643890Y458277D01*
X643732Y458357D01*
X643559Y458425D01*
X643370Y458481D01*
X643167Y458524D01*
X642948Y458555D01*
X642715Y458573D01*
X642466Y458580D01*
X641841Y458580D01*
X641841Y459537D01*
X642442Y459537D01*
X642662Y459543D01*
X642870Y459561D01*
X643065Y459592D01*
X643248Y459635D01*
X643417Y459691D01*
X643574Y459759D01*
X643718Y459839D01*
X643849Y459932D01*
X643967Y460036D01*
X644068Y460149D01*
X644154Y460272D01*
X644224Y460404D01*
X644279Y460545D01*
X644318Y460696D01*
X644342Y460857D01*
X644349Y461027D01*
X644343Y461196D01*
X644324Y461355D01*
X644292Y461506D01*
X644247Y461647D01*
X644120Y461903D01*
X643941Y462122D01*
X643833Y462216D01*
X643713Y462298D01*
X643580Y462367D01*
X643435Y462423D01*
X643277Y462467D01*
X643107Y462499D01*
X642925Y462518D01*
X642730Y462524D01*
X642382Y462500D01*
X642070Y462430D01*
X641792Y462313D01*
X641549Y462150D01*
X641347Y461943D01*
X641193Y461699D01*
X641085Y461416D01*
X641025Y461095D01*
X639914Y461180D01*
X639955Y461438D01*
X640015Y461682D01*
X640096Y461911D01*
X640196Y462125D01*
X640316Y462325D01*
X640456Y462510D01*
X640615Y462681D01*
X640795Y462837D01*
X640991Y462976D01*
X641200Y463097D01*
X641424Y463199D01*
X641660Y463283D01*
X641911Y463348D01*
X642174Y463394D01*
X642451Y463422D01*
X642742Y463432D01*
X643058Y463422D01*
X643356Y463394D01*
X643636Y463347D01*
X643898Y463281D01*
X644141Y463196D01*
X644367Y463092D01*
X644574Y462969D01*
X644763Y462827D01*
X644932Y462669D01*
X645079Y462496D01*
X645203Y462307D01*
X645304Y462104D01*
X645383Y461887D01*
X645439Y461654D01*
X645473Y461406D01*
X645484Y461144D01*
X645477Y460941D01*
X645455Y460749D01*
X645419Y460566D01*
X645368Y460393D01*
X645303Y460230D01*
X645224Y460076D01*
X645130Y459932D01*
X645021Y459797D01*
X644899Y459673D01*
X644763Y459559D01*
X644453Y459363D01*
X644090Y459208D01*
X643675Y459095D01*
X643675Y459070D01*
X643910Y459037D01*
X644132Y458991D01*
X644341Y458930D01*
X644536Y458856D01*
X644718Y458768D01*
X644887Y458666D01*
X645042Y458550D01*
X645184Y458420D01*
X645310Y458279D01*
X645420Y458130D01*
X645512Y457971D01*
X645588Y457804D01*
X645647Y457628D01*
X645690Y457443D01*
X645715Y457249D01*
X645723Y457046D01*
X645711Y456756D01*
X645676Y456482D01*
X645616Y456225D01*
X645533Y455985D01*
X645426Y455762D01*
X645296Y455556D01*
X645141Y455366D01*
X644963Y455194D01*
X644762Y455040D01*
X644542Y454907D01*
X644301Y454794D01*
X644040Y454701D01*
X643758Y454630D01*
X643456Y454578D01*
X643134Y454548D01*
X642791Y454537D01*
G37*
G36*
X630269Y454660D02*
X624546Y454660D01*
X624546Y455439D01*
X624711Y455787D01*
X624893Y456115D01*
X625092Y456421D01*
X625309Y456706D01*
X625772Y457229D01*
X626257Y457699D01*
X626752Y458128D01*
X627241Y458524D01*
X627705Y458905D01*
X628122Y459285D01*
X628309Y459478D01*
X628477Y459675D01*
X628626Y459876D01*
X628757Y460082D01*
X628863Y460298D01*
X628938Y460527D01*
X628984Y460770D01*
X628999Y461027D01*
X628992Y461200D01*
X628973Y461363D01*
X628940Y461516D01*
X628895Y461659D01*
X628836Y461792D01*
X628764Y461915D01*
X628582Y462131D01*
X628353Y462303D01*
X628083Y462426D01*
X627933Y462469D01*
X627773Y462499D01*
X627603Y462518D01*
X627422Y462524D01*
X627085Y462500D01*
X626779Y462428D01*
X626504Y462308D01*
X626260Y462140D01*
X626055Y461929D01*
X625897Y461680D01*
X625787Y461391D01*
X625723Y461064D01*
X624595Y461168D01*
X624635Y461421D01*
X624696Y461660D01*
X624776Y461886D01*
X624876Y462099D01*
X624996Y462299D01*
X625136Y462485D01*
X625295Y462658D01*
X625475Y462818D01*
X625671Y462962D01*
X625881Y463087D01*
X626104Y463192D01*
X626341Y463278D01*
X626591Y463345D01*
X626854Y463393D01*
X627132Y463422D01*
X627422Y463432D01*
X627740Y463422D01*
X628038Y463393D01*
X628317Y463345D01*
X628578Y463278D01*
X628820Y463191D01*
X629042Y463085D01*
X629246Y462960D01*
X629431Y462815D01*
X629596Y462653D01*
X629739Y462475D01*
X629859Y462280D01*
X629958Y462069D01*
X630035Y461842D01*
X630090Y461599D01*
X630123Y461340D01*
X630134Y461064D01*
X630119Y460813D01*
X630076Y460562D01*
X630004Y460313D01*
X629904Y460064D01*
X629775Y459816D01*
X629618Y459567D01*
X629433Y459319D01*
X629220Y459070D01*
X628941Y458788D01*
X628559Y458437D01*
X627484Y457531D01*
X626850Y456982D01*
X626361Y456491D01*
X626167Y456262D01*
X626002Y456036D01*
X625867Y455815D01*
X625760Y455599D01*
X630269Y455599D01*
X630269Y454660D01*
G37*
G36*
X409764Y392204D02*
X397423Y392204D01*
X397423Y396688D01*
X397435Y397214D01*
X397470Y397706D01*
X397529Y398164D01*
X397610Y398589D01*
X397716Y398979D01*
X397844Y399335D01*
X397997Y399658D01*
X398172Y399946D01*
X398371Y400201D01*
X398593Y400421D01*
X398839Y400608D01*
X399108Y400761D01*
X399401Y400879D01*
X399717Y400964D01*
X400056Y401015D01*
X400419Y401032D01*
X400687Y401023D01*
X400944Y400994D01*
X401191Y400946D01*
X401426Y400879D01*
X401650Y400793D01*
X401864Y400687D01*
X402066Y400563D01*
X402258Y400419D01*
X402436Y400258D01*
X402528Y400158D01*
X402600Y400081D01*
X402747Y399888D01*
X402880Y399679D01*
X402997Y399454D01*
X403099Y399214D01*
X403185Y398957D01*
X403256Y398685D01*
X403310Y399042D01*
X403384Y399378D01*
X403477Y399694D01*
X403590Y399988D01*
X403723Y400261D01*
X403876Y400513D01*
X404049Y400744D01*
X404138Y400840D01*
X404242Y400953D01*
X404451Y401140D01*
X404673Y401302D01*
X404909Y401439D01*
X405158Y401551D01*
X405420Y401638D01*
X405696Y401701D01*
X405985Y401738D01*
X406287Y401750D01*
X406687Y401732D01*
X407064Y401675D01*
X407419Y401582D01*
X407751Y401450D01*
X408059Y401282D01*
X408345Y401075D01*
X408609Y400832D01*
X408849Y400550D01*
X409063Y400236D01*
X409249Y399892D01*
X409407Y399519D01*
X409535Y399116D01*
X409635Y398684D01*
X409707Y398223D01*
X409750Y397733D01*
X409764Y397213D01*
X409764Y392204D01*
G37*
%LPC*%
G36*
X408424Y393876D02*
X408424Y397126D01*
X408415Y397496D01*
X408388Y397840D01*
X408344Y398158D01*
X408282Y398451D01*
X408202Y398717D01*
X408104Y398957D01*
X407988Y399171D01*
X407855Y399359D01*
X407704Y399524D01*
X407535Y399666D01*
X407349Y399786D01*
X407145Y399885D01*
X406924Y399961D01*
X406685Y400016D01*
X406429Y400049D01*
X406156Y400060D01*
X405891Y400048D01*
X405644Y400012D01*
X405414Y399952D01*
X405201Y399868D01*
X405005Y399761D01*
X404827Y399629D01*
X404665Y399473D01*
X404520Y399294D01*
X404392Y399090D01*
X404281Y398863D01*
X404188Y398611D01*
X404111Y398336D01*
X404051Y398036D01*
X404009Y397713D01*
X403983Y397366D01*
X403975Y396994D01*
X403975Y393876D01*
X408424Y393876D01*
G37*
G36*
X402670Y393876D02*
X402670Y396688D01*
X402662Y397012D01*
X402638Y397316D01*
X402599Y397598D01*
X402544Y397858D01*
X402473Y398098D01*
X402386Y398316D01*
X402284Y398513D01*
X402166Y398689D01*
X402032Y398844D01*
X401881Y398979D01*
X401713Y399092D01*
X401528Y399185D01*
X401326Y399258D01*
X401108Y399309D01*
X400872Y399340D01*
X400620Y399351D01*
X400379Y399340D01*
X400156Y399308D01*
X399951Y399254D01*
X399764Y399180D01*
X399594Y399084D01*
X399443Y398966D01*
X399309Y398827D01*
X399192Y398667D01*
X399092Y398487D01*
X399005Y398287D01*
X398931Y398069D01*
X398871Y397831D01*
X398824Y397574D01*
X398790Y397298D01*
X398770Y397002D01*
X398763Y396688D01*
X398763Y393876D01*
X402670Y393876D01*
G37*
%LPD*%
G36*
X409764Y448732D02*
X409465Y448755D01*
X409039Y448771D01*
X407811Y448785D01*
X396766Y448785D01*
X396766Y450361D01*
X400471Y450361D01*
X401091Y450352D01*
X401811Y450326D01*
X401811Y450361D01*
X401388Y450598D01*
X401201Y450730D01*
X401030Y450870D01*
X400875Y451020D01*
X400736Y451178D01*
X400613Y451345D01*
X400506Y451522D01*
X400414Y451708D01*
X400334Y451905D01*
X400266Y452112D01*
X400211Y452331D01*
X400168Y452560D01*
X400137Y452800D01*
X400118Y453051D01*
X400112Y453313D01*
X400131Y453747D01*
X400188Y454151D01*
X400282Y454526D01*
X400414Y454871D01*
X400584Y455186D01*
X400792Y455471D01*
X401038Y455727D01*
X401321Y455953D01*
X401642Y456152D01*
X402003Y456323D01*
X402402Y456468D01*
X402840Y456587D01*
X403317Y456680D01*
X403833Y456746D01*
X404388Y456785D01*
X404982Y456799D01*
X405582Y456785D01*
X406144Y456744D01*
X406667Y456676D01*
X407151Y456581D01*
X407596Y456458D01*
X408003Y456308D01*
X408371Y456131D01*
X408700Y455927D01*
X408990Y455696D01*
X409242Y455437D01*
X409455Y455151D01*
X409629Y454838D01*
X409765Y454497D01*
X409862Y454130D01*
X409920Y453735D01*
X409939Y453313D01*
X409933Y453049D01*
X409915Y452797D01*
X409884Y452556D01*
X409842Y452326D01*
X409787Y452108D01*
X409720Y451901D01*
X409641Y451706D01*
X409549Y451522D01*
X409445Y451347D01*
X409325Y451181D01*
X409190Y451024D01*
X409040Y450875D01*
X408696Y450601D01*
X408293Y450361D01*
X408293Y450344D01*
X409120Y450309D01*
X409764Y450256D01*
X409764Y448732D01*
G37*
%LPC*%
G36*
X405131Y450361D02*
X405582Y450370D01*
X406003Y450398D01*
X406393Y450445D01*
X406752Y450510D01*
X407081Y450594D01*
X407380Y450696D01*
X407648Y450817D01*
X407885Y450957D01*
X408094Y451117D01*
X408274Y451301D01*
X408427Y451508D01*
X408552Y451738D01*
X408649Y451992D01*
X408719Y452269D01*
X408760Y452569D01*
X408774Y452892D01*
X408761Y453180D01*
X408719Y453447D01*
X408651Y453693D01*
X408554Y453918D01*
X408430Y454123D01*
X408279Y454307D01*
X408100Y454471D01*
X407894Y454613D01*
X407657Y454738D01*
X407385Y454845D01*
X407079Y454936D01*
X406739Y455011D01*
X406364Y455069D01*
X405955Y455110D01*
X405512Y455135D01*
X405034Y455143D01*
X404555Y455135D01*
X404111Y455110D01*
X403702Y455069D01*
X403329Y455012D01*
X402991Y454938D01*
X402688Y454848D01*
X402420Y454741D01*
X402188Y454618D01*
X401987Y454476D01*
X401812Y454314D01*
X401665Y454131D01*
X401544Y453928D01*
X401450Y453704D01*
X401383Y453460D01*
X401343Y453195D01*
X401330Y452910D01*
X401344Y452588D01*
X401386Y452289D01*
X401458Y452013D01*
X401557Y451759D01*
X401685Y451528D01*
X401842Y451319D01*
X402027Y451133D01*
X402240Y450970D01*
X402485Y450827D01*
X402763Y450703D01*
X403074Y450599D01*
X403418Y450513D01*
X403796Y450447D01*
X404208Y450399D01*
X404653Y450371D01*
X405131Y450361D01*
G37*
%LPD*%
G36*
X405017Y493204D02*
X404423Y493221D01*
X403867Y493270D01*
X403350Y493353D01*
X402871Y493470D01*
X402430Y493619D01*
X402028Y493801D01*
X401664Y494017D01*
X401338Y494266D01*
X401051Y494548D01*
X400802Y494863D01*
X400591Y495212D01*
X400419Y495594D01*
X400285Y496008D01*
X400189Y496456D01*
X400131Y496938D01*
X400112Y497452D01*
X400131Y497977D01*
X400187Y498466D01*
X400280Y498920D01*
X400411Y499337D01*
X400579Y499719D01*
X400785Y500065D01*
X401027Y500375D01*
X401308Y500649D01*
X401627Y500889D01*
X401988Y501097D01*
X402390Y501273D01*
X402833Y501417D01*
X403317Y501530D01*
X403842Y501610D01*
X404409Y501658D01*
X405017Y501674D01*
X405619Y501657D01*
X406181Y501605D01*
X406704Y501520D01*
X407187Y501400D01*
X407630Y501246D01*
X408034Y501058D01*
X408398Y500835D01*
X408722Y500579D01*
X409007Y500290D01*
X409254Y499970D01*
X409464Y499619D01*
X409635Y499237D01*
X409768Y498824D01*
X409863Y498380D01*
X409920Y497905D01*
X409939Y497399D01*
X409919Y496896D01*
X409860Y496425D01*
X409761Y495985D01*
X409623Y495578D01*
X409445Y495202D01*
X409227Y494857D01*
X408970Y494545D01*
X408674Y494264D01*
X408340Y494016D01*
X407970Y493800D01*
X407566Y493618D01*
X407127Y493469D01*
X406652Y493353D01*
X406142Y493270D01*
X405597Y493221D01*
X405017Y493204D01*
G37*
%LPC*%
G36*
X405017Y494859D02*
X405471Y494869D01*
X405896Y494898D01*
X406291Y494945D01*
X406658Y495012D01*
X406995Y495097D01*
X407304Y495202D01*
X407583Y495326D01*
X407833Y495468D01*
X408053Y495631D01*
X408245Y495816D01*
X408407Y496023D01*
X408539Y496251D01*
X408642Y496501D01*
X408715Y496773D01*
X408760Y497067D01*
X408774Y497382D01*
X408760Y497724D01*
X408717Y498041D01*
X408646Y498332D01*
X408547Y498598D01*
X408418Y498839D01*
X408262Y499055D01*
X408077Y499245D01*
X407863Y499410D01*
X407620Y499552D01*
X407344Y499676D01*
X407036Y499780D01*
X406696Y499866D01*
X406325Y499933D01*
X405921Y499980D01*
X405485Y500009D01*
X405017Y500018D01*
X404543Y500009D01*
X404103Y499982D01*
X403696Y499936D01*
X403323Y499873D01*
X402984Y499791D01*
X402678Y499691D01*
X402405Y499572D01*
X402166Y499436D01*
X401958Y499278D01*
X401777Y499095D01*
X401624Y498888D01*
X401499Y498655D01*
X401402Y498398D01*
X401333Y498116D01*
X401291Y497810D01*
X401277Y497478D01*
X401291Y497144D01*
X401334Y496834D01*
X401404Y496548D01*
X401504Y496286D01*
X401631Y496048D01*
X401787Y495834D01*
X401971Y495643D01*
X402184Y495477D01*
X402426Y495332D01*
X402701Y495207D01*
X403007Y495101D01*
X403345Y495014D01*
X403715Y494946D01*
X404117Y494898D01*
X404551Y494869D01*
X405017Y494859D01*
G37*
%LPD*%
G36*
X403878Y403612D02*
X403100Y403630D01*
X402369Y403683D01*
X401683Y403773D01*
X401045Y403899D01*
X400453Y404060D01*
X399907Y404257D01*
X399408Y404490D01*
X398956Y404759D01*
X398554Y405061D01*
X398205Y405394D01*
X397910Y405756D01*
X397668Y406150D01*
X397481Y406573D01*
X397407Y406796D01*
X397347Y407027D01*
X397300Y407265D01*
X397266Y407511D01*
X397246Y407765D01*
X397239Y408026D01*
X397249Y408367D01*
X397279Y408692D01*
X397328Y409001D01*
X397396Y409294D01*
X397485Y409570D01*
X397593Y409831D01*
X397720Y410075D01*
X397868Y410303D01*
X398035Y410515D01*
X398221Y410711D01*
X398427Y410891D01*
X398653Y411054D01*
X398899Y411202D01*
X399164Y411333D01*
X399449Y411448D01*
X399753Y411547D01*
X400025Y410041D01*
X399671Y409907D01*
X399365Y409739D01*
X399107Y409537D01*
X398895Y409300D01*
X398730Y409029D01*
X398612Y408723D01*
X398542Y408383D01*
X398518Y408009D01*
X398538Y407681D01*
X398597Y407372D01*
X398695Y407083D01*
X398832Y406812D01*
X399009Y406560D01*
X399225Y406328D01*
X399480Y406114D01*
X399775Y405920D01*
X400107Y405746D01*
X400474Y405596D01*
X400876Y405469D01*
X401313Y405365D01*
X401786Y405284D01*
X402293Y405226D01*
X402836Y405191D01*
X403414Y405180D01*
X403039Y405416D01*
X402712Y405696D01*
X402433Y406020D01*
X402201Y406388D01*
X402019Y406792D01*
X401889Y407225D01*
X401844Y407452D01*
X401811Y407686D01*
X401791Y407927D01*
X401785Y408175D01*
X401802Y408591D01*
X401852Y408985D01*
X401935Y409357D01*
X402052Y409707D01*
X402202Y410034D01*
X402386Y410340D01*
X402603Y410624D01*
X402854Y410886D01*
X403132Y411121D01*
X403434Y411324D01*
X403758Y411497D01*
X404106Y411638D01*
X404477Y411748D01*
X404870Y411826D01*
X405287Y411873D01*
X405726Y411889D01*
X406202Y411872D01*
X406651Y411822D01*
X407075Y411740D01*
X407474Y411624D01*
X407846Y411475D01*
X408193Y411292D01*
X408514Y411077D01*
X408809Y410829D01*
X409074Y410551D01*
X409304Y410249D01*
X409498Y409921D01*
X409657Y409568D01*
X409780Y409189D01*
X409869Y408786D01*
X409922Y408357D01*
X409939Y407903D01*
X409933Y407647D01*
X409915Y407398D01*
X409842Y406922D01*
X409721Y406478D01*
X409552Y406064D01*
X409334Y405681D01*
X409067Y405328D01*
X408752Y405007D01*
X408389Y404715D01*
X407979Y404457D01*
X407526Y404233D01*
X407028Y404043D01*
X406486Y403888D01*
X405900Y403767D01*
X405270Y403681D01*
X404596Y403629D01*
X403878Y403612D01*
G37*
%LPC*%
G36*
X405420Y405337D02*
X405769Y405348D01*
X406101Y405381D01*
X406418Y405436D01*
X406718Y405513D01*
X407002Y405613D01*
X407271Y405734D01*
X407523Y405877D01*
X407758Y406042D01*
X407972Y406225D01*
X408157Y406420D01*
X408313Y406627D01*
X408441Y406847D01*
X408541Y407079D01*
X408612Y407324D01*
X408655Y407581D01*
X408669Y407851D01*
X408657Y408128D01*
X408621Y408390D01*
X408561Y408636D01*
X408478Y408867D01*
X408370Y409083D01*
X408238Y409283D01*
X408082Y409468D01*
X407903Y409638D01*
X407702Y409790D01*
X407484Y409921D01*
X407247Y410033D01*
X406993Y410124D01*
X406721Y410195D01*
X406431Y410245D01*
X406122Y410276D01*
X405796Y410286D01*
X405471Y410276D01*
X405165Y410245D01*
X404878Y410193D01*
X404610Y410122D01*
X404361Y410029D01*
X404131Y409916D01*
X403921Y409783D01*
X403729Y409629D01*
X403559Y409457D01*
X403411Y409268D01*
X403286Y409064D01*
X403184Y408843D01*
X403105Y408606D01*
X403048Y408353D01*
X403014Y408084D01*
X403002Y407798D01*
X403012Y407529D01*
X403043Y407273D01*
X403093Y407030D01*
X403163Y406801D01*
X403254Y406585D01*
X403365Y406382D01*
X403495Y406192D01*
X403646Y406016D01*
X403815Y405857D01*
X403998Y405719D01*
X404197Y405602D01*
X404411Y405507D01*
X404641Y405433D01*
X404885Y405380D01*
X405145Y405348D01*
X405420Y405337D01*
G37*
%LPD*%
G36*
X403878Y413581D02*
X403100Y413598D01*
X402369Y413652D01*
X401683Y413742D01*
X401045Y413867D01*
X400453Y414029D01*
X399907Y414226D01*
X399408Y414459D01*
X398956Y414728D01*
X398554Y415030D01*
X398205Y415362D01*
X397910Y415725D01*
X397668Y416118D01*
X397481Y416542D01*
X397407Y416765D01*
X397347Y416996D01*
X397300Y417234D01*
X397266Y417480D01*
X397246Y417734D01*
X397239Y417995D01*
X397249Y418336D01*
X397279Y418661D01*
X397328Y418970D01*
X397396Y419263D01*
X397485Y419539D01*
X397593Y419800D01*
X397720Y420044D01*
X397868Y420272D01*
X398035Y420484D01*
X398221Y420680D01*
X398427Y420860D01*
X398653Y421023D01*
X398899Y421170D01*
X399164Y421302D01*
X399449Y421417D01*
X399753Y421516D01*
X400025Y420009D01*
X399671Y419876D01*
X399365Y419708D01*
X399107Y419506D01*
X398895Y419269D01*
X398730Y418998D01*
X398612Y418692D01*
X398542Y418352D01*
X398518Y417977D01*
X398538Y417650D01*
X398597Y417341D01*
X398695Y417051D01*
X398832Y416781D01*
X399009Y416529D01*
X399225Y416296D01*
X399480Y416083D01*
X399775Y415888D01*
X400107Y415715D01*
X400474Y415565D01*
X400876Y415437D01*
X401313Y415333D01*
X401786Y415252D01*
X402293Y415195D01*
X402836Y415160D01*
X403414Y415148D01*
X403039Y415385D01*
X402712Y415665D01*
X402433Y415989D01*
X402201Y416357D01*
X402019Y416761D01*
X401889Y417193D01*
X401844Y417420D01*
X401811Y417654D01*
X401791Y417895D01*
X401785Y418144D01*
X401802Y418560D01*
X401852Y418954D01*
X401935Y419326D01*
X402052Y419675D01*
X402202Y420003D01*
X402386Y420309D01*
X402603Y420593D01*
X402854Y420854D01*
X403132Y421090D01*
X403434Y421293D01*
X403758Y421466D01*
X404106Y421607D01*
X404477Y421716D01*
X404870Y421795D01*
X405287Y421842D01*
X405726Y421857D01*
X406202Y421841D01*
X406651Y421791D01*
X407075Y421708D01*
X407474Y421592D01*
X407846Y421443D01*
X408193Y421261D01*
X408514Y421046D01*
X408809Y420798D01*
X409074Y420520D01*
X409304Y420217D01*
X409498Y419889D01*
X409657Y419536D01*
X409780Y419158D01*
X409869Y418755D01*
X409922Y418326D01*
X409939Y417872D01*
X409933Y417615D01*
X409915Y417366D01*
X409842Y416891D01*
X409721Y416447D01*
X409552Y416033D01*
X409334Y415650D01*
X409067Y415297D01*
X408752Y414975D01*
X408389Y414684D01*
X407979Y414425D01*
X407526Y414201D01*
X407028Y414012D01*
X406486Y413856D01*
X405900Y413736D01*
X405270Y413649D01*
X404596Y413598D01*
X403878Y413581D01*
G37*
%LPC*%
G36*
X405420Y415306D02*
X405769Y415317D01*
X406101Y415350D01*
X406418Y415405D01*
X406718Y415482D01*
X407002Y415581D01*
X407271Y415703D01*
X407523Y415846D01*
X407758Y416011D01*
X407972Y416194D01*
X408157Y416388D01*
X408313Y416596D01*
X408441Y416816D01*
X408541Y417048D01*
X408612Y417293D01*
X408655Y417550D01*
X408669Y417820D01*
X408657Y418097D01*
X408621Y418358D01*
X408561Y418605D01*
X408478Y418836D01*
X408370Y419051D01*
X408238Y419252D01*
X408082Y419437D01*
X407903Y419606D01*
X407702Y419758D01*
X407484Y419890D01*
X407247Y420001D01*
X406993Y420092D01*
X406721Y420163D01*
X406431Y420214D01*
X406122Y420244D01*
X405796Y420255D01*
X405471Y420244D01*
X405165Y420213D01*
X404878Y420162D01*
X404610Y420090D01*
X404361Y419998D01*
X404131Y419885D01*
X403921Y419752D01*
X403729Y419598D01*
X403559Y419425D01*
X403411Y419237D01*
X403286Y419032D01*
X403184Y418812D01*
X403105Y418575D01*
X403048Y418322D01*
X403014Y418052D01*
X403002Y417767D01*
X403012Y417498D01*
X403043Y417242D01*
X403093Y416999D01*
X403163Y416770D01*
X403254Y416554D01*
X403365Y416351D01*
X403495Y416161D01*
X403646Y415985D01*
X403815Y415826D01*
X403998Y415688D01*
X404197Y415571D01*
X404411Y415476D01*
X404641Y415401D01*
X404885Y415348D01*
X405145Y415317D01*
X405420Y415306D01*
G37*
%LPD*%
G36*
X407119Y474275D02*
X406762Y474290D01*
X406426Y474336D01*
X406111Y474411D01*
X405818Y474517D01*
X405547Y474653D01*
X405296Y474820D01*
X405067Y475016D01*
X404859Y475243D01*
X404674Y475504D01*
X404511Y475801D01*
X404372Y476136D01*
X404255Y476508D01*
X404161Y476917D01*
X404091Y477362D01*
X404043Y477846D01*
X404018Y478366D01*
X403983Y480494D01*
X403467Y480494D01*
X403188Y480486D01*
X402930Y480463D01*
X402692Y480425D01*
X402475Y480371D01*
X402278Y480302D01*
X402102Y480218D01*
X401946Y480118D01*
X401811Y480003D01*
X401694Y479872D01*
X401593Y479723D01*
X401507Y479557D01*
X401437Y479373D01*
X401382Y479171D01*
X401343Y478952D01*
X401320Y478716D01*
X401312Y478462D01*
X401334Y477968D01*
X401363Y477748D01*
X401402Y477547D01*
X401452Y477363D01*
X401514Y477197D01*
X401587Y477050D01*
X401671Y476920D01*
X401768Y476806D01*
X401878Y476704D01*
X402001Y476613D01*
X402138Y476535D01*
X402288Y476469D01*
X402451Y476415D01*
X402628Y476372D01*
X402819Y476342D01*
X402670Y474696D01*
X402360Y474758D01*
X402070Y474843D01*
X401800Y474952D01*
X401551Y475084D01*
X401321Y475240D01*
X401111Y475419D01*
X400921Y475622D01*
X400751Y475848D01*
X400602Y476097D01*
X400472Y476369D01*
X400362Y476666D01*
X400272Y476985D01*
X400202Y477328D01*
X400152Y477694D01*
X400122Y478084D01*
X400112Y478497D01*
X400125Y478930D01*
X400163Y479335D01*
X400227Y479713D01*
X400317Y480063D01*
X400432Y480385D01*
X400573Y480680D01*
X400739Y480947D01*
X400931Y481186D01*
X401147Y481397D01*
X401386Y481581D01*
X401648Y481736D01*
X401933Y481862D01*
X402240Y481961D01*
X402571Y482032D01*
X402924Y482074D01*
X403300Y482088D01*
X407382Y482088D01*
X407710Y482099D01*
X407996Y482134D01*
X408238Y482191D01*
X408437Y482272D01*
X408592Y482385D01*
X408703Y482539D01*
X408770Y482735D01*
X408792Y482973D01*
X408777Y483216D01*
X408731Y483489D01*
X409711Y483489D01*
X409773Y483190D01*
X409817Y482887D01*
X409843Y482581D01*
X409852Y482272D01*
X409844Y482060D01*
X409823Y481864D01*
X409787Y481682D01*
X409737Y481515D01*
X409672Y481364D01*
X409593Y481227D01*
X409500Y481105D01*
X409392Y480998D01*
X409269Y480903D01*
X409129Y480820D01*
X408974Y480747D01*
X408802Y480686D01*
X408613Y480635D01*
X408409Y480594D01*
X407951Y480546D01*
X407951Y480494D01*
X408454Y480179D01*
X408676Y480013D01*
X408878Y479840D01*
X409061Y479662D01*
X409223Y479477D01*
X409365Y479285D01*
X409488Y479088D01*
X409594Y478882D01*
X409685Y478666D01*
X409763Y478438D01*
X409826Y478200D01*
X409876Y477951D01*
X409911Y477691D01*
X409932Y477421D01*
X409939Y477139D01*
X409927Y476794D01*
X409892Y476470D01*
X409833Y476168D01*
X409751Y475889D01*
X409645Y475632D01*
X409516Y475397D01*
X409363Y475184D01*
X409186Y474994D01*
X408989Y474825D01*
X408774Y474679D01*
X408542Y474556D01*
X408293Y474455D01*
X408025Y474376D01*
X407741Y474320D01*
X407439Y474287D01*
X407119Y474275D01*
G37*
%LPC*%
G36*
X407145Y475896D02*
X407332Y475902D01*
X407509Y475922D01*
X407674Y475954D01*
X407828Y476000D01*
X407972Y476058D01*
X408104Y476130D01*
X408226Y476214D01*
X408336Y476312D01*
X408435Y476421D01*
X408520Y476542D01*
X408593Y476674D01*
X408652Y476816D01*
X408698Y476970D01*
X408731Y477135D01*
X408750Y477311D01*
X408757Y477499D01*
X408751Y477712D01*
X408732Y477920D01*
X408658Y478317D01*
X408535Y478691D01*
X408363Y479040D01*
X408147Y479359D01*
X407895Y479643D01*
X407606Y479892D01*
X407281Y480104D01*
X406935Y480275D01*
X406584Y480396D01*
X406227Y480470D01*
X405866Y480494D01*
X405087Y480494D01*
X405122Y478769D01*
X405143Y478246D01*
X405188Y477791D01*
X405257Y477403D01*
X405350Y477082D01*
X405469Y476812D01*
X405617Y476576D01*
X405793Y476372D01*
X405998Y476202D01*
X406234Y476068D01*
X406504Y475972D01*
X406807Y475915D01*
X407145Y475896D01*
G37*
%LPD*%
G36*
X404964Y464307D02*
X404395Y464324D01*
X403859Y464375D01*
X403358Y464461D01*
X402891Y464581D01*
X402458Y464736D01*
X402059Y464925D01*
X401695Y465148D01*
X401365Y465406D01*
X401071Y465695D01*
X400817Y466014D01*
X400601Y466363D01*
X400425Y466740D01*
X400288Y467148D01*
X400190Y467584D01*
X400132Y468050D01*
X400112Y468546D01*
X400132Y469052D01*
X400191Y469525D01*
X400289Y469966D01*
X400427Y470374D01*
X400604Y470749D01*
X400820Y471092D01*
X401076Y471402D01*
X401371Y471679D01*
X401706Y471924D01*
X402079Y472136D01*
X402492Y472316D01*
X402945Y472462D01*
X403437Y472577D01*
X403968Y472658D01*
X404538Y472707D01*
X405148Y472724D01*
X405358Y472724D01*
X405358Y465962D01*
X405754Y465973D01*
X406126Y466004D01*
X406476Y466057D01*
X406801Y466131D01*
X407104Y466225D01*
X407383Y466341D01*
X407639Y466478D01*
X407872Y466636D01*
X408080Y466815D01*
X408259Y467012D01*
X408411Y467230D01*
X408536Y467466D01*
X408632Y467722D01*
X408702Y467998D01*
X408743Y468293D01*
X408757Y468607D01*
X408750Y468857D01*
X408731Y469094D01*
X408699Y469318D01*
X408654Y469530D01*
X408596Y469729D01*
X408525Y469915D01*
X408442Y470089D01*
X408345Y470249D01*
X408126Y470533D01*
X407879Y470767D01*
X407605Y470951D01*
X407303Y471086D01*
X407697Y472470D01*
X407969Y472355D01*
X408223Y472223D01*
X408459Y472075D01*
X408678Y471910D01*
X408879Y471727D01*
X409063Y471528D01*
X409230Y471312D01*
X409379Y471079D01*
X409510Y470829D01*
X409624Y470563D01*
X409720Y470279D01*
X409799Y469978D01*
X409860Y469661D01*
X409904Y469326D01*
X409930Y468975D01*
X409939Y468607D01*
X409920Y468097D01*
X409861Y467619D01*
X409763Y467172D01*
X409626Y466756D01*
X409450Y466371D01*
X409235Y466018D01*
X408980Y465696D01*
X408687Y465406D01*
X408355Y465148D01*
X407984Y464925D01*
X407576Y464736D01*
X407130Y464581D01*
X406646Y464461D01*
X406123Y464375D01*
X405563Y464324D01*
X404964Y464307D01*
G37*
%LPC*%
G36*
X404150Y465980D02*
X404150Y471094D01*
X403788Y471054D01*
X403452Y470998D01*
X403140Y470926D01*
X402855Y470838D01*
X402594Y470735D01*
X402359Y470617D01*
X402149Y470482D01*
X401965Y470332D01*
X401803Y470166D01*
X401664Y469983D01*
X401546Y469782D01*
X401449Y469564D01*
X401374Y469329D01*
X401320Y469076D01*
X401288Y468806D01*
X401277Y468519D01*
X401289Y468240D01*
X401325Y467976D01*
X401385Y467726D01*
X401469Y467491D01*
X401576Y467272D01*
X401708Y467067D01*
X401864Y466877D01*
X402043Y466702D01*
X402244Y466544D01*
X402462Y466406D01*
X402699Y466286D01*
X402953Y466186D01*
X403225Y466106D01*
X403516Y466044D01*
X403824Y466002D01*
X404150Y465980D01*
G37*
%LPD*%
G36*
X409764Y484691D02*
X396766Y484691D01*
X396766Y486267D01*
X404886Y486267D01*
X400287Y490428D01*
X400287Y492276D01*
X404360Y488431D01*
X409764Y492477D01*
X409764Y490629D01*
X405437Y487423D01*
X406392Y486267D01*
X409764Y486267D01*
X409764Y484691D01*
G37*
G36*
X409764Y433541D02*
X408652Y433541D01*
X408154Y433776D01*
X407687Y434036D01*
X407250Y434321D01*
X406843Y434631D01*
X406460Y434957D01*
X406096Y435291D01*
X405751Y435634D01*
X405424Y435984D01*
X404812Y436690D01*
X404246Y437390D01*
X403703Y438052D01*
X403160Y438647D01*
X402885Y438914D01*
X402604Y439154D01*
X402316Y439367D01*
X402021Y439553D01*
X401714Y439705D01*
X401386Y439813D01*
X401039Y439878D01*
X400673Y439899D01*
X400426Y439890D01*
X400193Y439862D01*
X399975Y439815D01*
X399771Y439750D01*
X399581Y439667D01*
X399405Y439564D01*
X399243Y439443D01*
X399096Y439304D01*
X398965Y439147D01*
X398851Y438977D01*
X398755Y438792D01*
X398676Y438592D01*
X398614Y438378D01*
X398571Y438149D01*
X398544Y437906D01*
X398536Y437648D01*
X398544Y437402D01*
X398570Y437167D01*
X398613Y436943D01*
X398672Y436730D01*
X398749Y436528D01*
X398843Y436337D01*
X398955Y436157D01*
X399083Y435989D01*
X399227Y435834D01*
X399384Y435696D01*
X399556Y435575D01*
X399741Y435471D01*
X399940Y435383D01*
X400153Y435313D01*
X400380Y435259D01*
X400620Y435222D01*
X400471Y433611D01*
X400111Y433669D01*
X399769Y433755D01*
X399446Y433869D01*
X399142Y434012D01*
X398857Y434184D01*
X398591Y434383D01*
X398344Y434611D01*
X398115Y434867D01*
X397910Y435147D01*
X397732Y435447D01*
X397581Y435766D01*
X397458Y436103D01*
X397362Y436461D01*
X397294Y436837D01*
X397253Y437233D01*
X397239Y437648D01*
X397253Y438101D01*
X397294Y438527D01*
X397363Y438926D01*
X397459Y439298D01*
X397583Y439643D01*
X397734Y439961D01*
X397913Y440252D01*
X398120Y440517D01*
X398351Y440752D01*
X398606Y440955D01*
X398884Y441128D01*
X399185Y441269D01*
X399509Y441379D01*
X399856Y441457D01*
X400227Y441504D01*
X400620Y441520D01*
X400979Y441499D01*
X401336Y441437D01*
X401692Y441335D01*
X402048Y441191D01*
X402402Y441007D01*
X402757Y440783D01*
X403112Y440519D01*
X403467Y440215D01*
X403870Y439817D01*
X404371Y439271D01*
X404969Y438577D01*
X405665Y437736D01*
X406067Y437258D01*
X406448Y436832D01*
X406809Y436457D01*
X407150Y436133D01*
X407477Y435856D01*
X407799Y435621D01*
X408114Y435427D01*
X408424Y435275D01*
X408424Y441712D01*
X409764Y441712D01*
X409764Y433541D01*
G37*
G36*
X406602Y503585D02*
X400287Y503585D01*
X400287Y505170D01*
X406296Y505170D01*
X406738Y505181D01*
X407128Y505216D01*
X407465Y505273D01*
X407750Y505354D01*
X407990Y505459D01*
X408194Y505592D01*
X408362Y505753D01*
X408494Y505941D01*
X408594Y506166D01*
X408665Y506438D01*
X408708Y506757D01*
X408722Y507123D01*
X408710Y507400D01*
X408673Y507662D01*
X408612Y507909D01*
X408527Y508141D01*
X408417Y508358D01*
X408283Y508560D01*
X408125Y508747D01*
X407942Y508918D01*
X407738Y509072D01*
X407515Y509206D01*
X407273Y509319D01*
X407012Y509411D01*
X406732Y509483D01*
X406433Y509534D01*
X406115Y509565D01*
X405779Y509575D01*
X400287Y509575D01*
X400287Y511152D01*
X407741Y511152D01*
X409074Y511165D01*
X409500Y511181D01*
X409764Y511204D01*
X409764Y509715D01*
X409528Y509698D01*
X409085Y509676D01*
X408144Y509645D01*
X408144Y509619D01*
X408598Y509337D01*
X408981Y509033D01*
X409146Y508874D01*
X409292Y508709D01*
X409421Y508538D01*
X409532Y508362D01*
X409627Y508178D01*
X409710Y507984D01*
X409780Y507778D01*
X409837Y507562D01*
X409882Y507335D01*
X409914Y507097D01*
X409933Y506848D01*
X409939Y506589D01*
X409927Y506212D01*
X409891Y505861D01*
X409830Y505537D01*
X409745Y505239D01*
X409636Y504967D01*
X409503Y504721D01*
X409346Y504501D01*
X409164Y504307D01*
X408954Y504138D01*
X408713Y503991D01*
X408440Y503867D01*
X408136Y503765D01*
X407800Y503686D01*
X407432Y503630D01*
X407033Y503596D01*
X406602Y503585D01*
G37*
G36*
X398790Y380198D02*
X397423Y380198D01*
X397423Y390340D01*
X398790Y390340D01*
X398790Y386101D01*
X409764Y386101D01*
X409764Y384437D01*
X398790Y384437D01*
X398790Y380198D01*
G37*
G36*
X409764Y424005D02*
X408424Y424005D01*
X408424Y427149D01*
X398930Y427149D01*
X400918Y424364D01*
X399429Y424364D01*
X397423Y427280D01*
X397423Y428734D01*
X408424Y428734D01*
X408424Y431739D01*
X409764Y431739D01*
X409764Y424005D01*
G37*
G36*
X401435Y512691D02*
X400287Y512691D01*
X400287Y513847D01*
X398168Y514311D01*
X398168Y515362D01*
X400287Y515362D01*
X400287Y517114D01*
X401435Y517114D01*
X401435Y515362D01*
X407417Y515362D01*
X407733Y515376D01*
X407998Y515418D01*
X408212Y515488D01*
X408376Y515586D01*
X408497Y515718D01*
X408583Y515891D01*
X408634Y516106D01*
X408652Y516361D01*
X408621Y516746D01*
X408529Y517272D01*
X409694Y517272D01*
X409786Y516880D01*
X409852Y516484D01*
X409891Y516083D01*
X409904Y515678D01*
X409896Y515449D01*
X409871Y515234D01*
X409829Y515035D01*
X409770Y514850D01*
X409695Y514680D01*
X409602Y514525D01*
X409493Y514385D01*
X409368Y514259D01*
X409225Y514148D01*
X409066Y514052D01*
X408890Y513971D01*
X408697Y513904D01*
X408488Y513852D01*
X408261Y513816D01*
X408018Y513793D01*
X407758Y513786D01*
X401435Y513786D01*
X401435Y512691D01*
G37*
G36*
X400287Y458767D02*
X400287Y460256D01*
X402223Y460326D01*
X402223Y460361D01*
X401662Y460557D01*
X401198Y460766D01*
X400830Y460990D01*
X400683Y461107D01*
X400559Y461228D01*
X400454Y461357D01*
X400363Y461499D01*
X400287Y461653D01*
X400224Y461819D01*
X400175Y461999D01*
X400140Y462191D01*
X400119Y462395D01*
X400112Y462612D01*
X400134Y462930D01*
X400200Y463251D01*
X401645Y463251D01*
X401607Y463081D01*
X401579Y462884D01*
X401557Y462411D01*
X401570Y462173D01*
X401610Y461949D01*
X401676Y461740D01*
X401769Y461546D01*
X401887Y461366D01*
X402033Y461200D01*
X402204Y461049D01*
X402402Y460913D01*
X402625Y460792D01*
X402871Y460687D01*
X403139Y460598D01*
X403431Y460525D01*
X403745Y460469D01*
X404082Y460428D01*
X404442Y460404D01*
X404824Y460396D01*
X409764Y460396D01*
X409764Y458820D01*
X402494Y458820D01*
X401443Y458806D01*
X400287Y458767D01*
G37*
G36*
X617529Y165100D02*
X616040Y165100D01*
X616040Y177441D01*
X617985Y177441D01*
X624659Y166860D01*
X624580Y168341D01*
X624553Y169348D01*
X624553Y177441D01*
X626060Y177441D01*
X626060Y165100D01*
X624045Y165100D01*
X617442Y175610D01*
X617485Y174761D01*
X617529Y173298D01*
X617529Y165100D01*
G37*
G36*
X612928Y165100D02*
X611255Y165100D01*
X611255Y177441D01*
X612928Y177441D01*
X612928Y165100D01*
G37*
G36*
X603863Y304625D02*
X603396Y304637D01*
X602945Y304673D01*
X602511Y304733D01*
X602093Y304818D01*
X601691Y304926D01*
X601305Y305058D01*
X600936Y305215D01*
X600583Y305396D01*
X600248Y305599D01*
X599934Y305824D01*
X599640Y306070D01*
X599367Y306338D01*
X599114Y306628D01*
X598881Y306938D01*
X598668Y307271D01*
X598477Y307625D01*
X598306Y307997D01*
X598158Y308384D01*
X598034Y308787D01*
X597931Y309204D01*
X597852Y309637D01*
X597795Y310086D01*
X597761Y310549D01*
X597750Y311027D01*
X597756Y311392D01*
X597775Y311747D01*
X597807Y312092D01*
X597851Y312427D01*
X597908Y312751D01*
X597977Y313066D01*
X598060Y313370D01*
X598155Y313665D01*
X598262Y313949D01*
X598383Y314223D01*
X598515Y314487D01*
X598661Y314741D01*
X598990Y315219D01*
X599370Y315656D01*
X599795Y316047D01*
X600022Y316223D01*
X600259Y316386D01*
X600507Y316536D01*
X600764Y316673D01*
X601031Y316797D01*
X601308Y316908D01*
X601595Y317005D01*
X601891Y317090D01*
X602198Y317162D01*
X602515Y317220D01*
X602841Y317266D01*
X603178Y317299D01*
X603524Y317318D01*
X603881Y317325D01*
X604344Y317313D01*
X604791Y317278D01*
X605223Y317219D01*
X605639Y317138D01*
X606039Y317032D01*
X606424Y316903D01*
X606794Y316751D01*
X607147Y316576D01*
X607483Y316378D01*
X607799Y316159D01*
X608094Y315919D01*
X608368Y315657D01*
X608622Y315375D01*
X608856Y315071D01*
X609070Y314746D01*
X609263Y314399D01*
X609434Y314034D01*
X609583Y313653D01*
X609708Y313256D01*
X609811Y312843D01*
X609891Y312413D01*
X609948Y311967D01*
X609983Y311505D01*
X609994Y311027D01*
X609982Y310551D01*
X609948Y310090D01*
X609890Y309643D01*
X609809Y309212D01*
X609705Y308796D01*
X609578Y308395D01*
X609427Y308009D01*
X609254Y307638D01*
X609059Y307285D01*
X608844Y306953D01*
X608608Y306642D01*
X608353Y306352D01*
X608077Y306084D01*
X607782Y305836D01*
X607466Y305610D01*
X607130Y305404D01*
X606776Y305222D01*
X606407Y305063D01*
X606022Y304929D01*
X605621Y304820D01*
X605205Y304734D01*
X604773Y304674D01*
X604326Y304637D01*
X603863Y304625D01*
G37*
%LPC*%
G36*
X603863Y305982D02*
X604382Y306003D01*
X604869Y306065D01*
X605326Y306168D01*
X605752Y306312D01*
X606146Y306497D01*
X606509Y306724D01*
X606842Y306992D01*
X607143Y307301D01*
X607411Y307647D01*
X607643Y308028D01*
X607840Y308443D01*
X608000Y308891D01*
X608125Y309374D01*
X608215Y309891D01*
X608268Y310442D01*
X608286Y311027D01*
X608268Y311588D01*
X608214Y312117D01*
X608124Y312616D01*
X607998Y313083D01*
X607836Y313520D01*
X607638Y313926D01*
X607404Y314301D01*
X607134Y314645D01*
X606832Y314953D01*
X606499Y315219D01*
X606137Y315445D01*
X605745Y315630D01*
X605323Y315774D01*
X604872Y315876D01*
X604391Y315938D01*
X603881Y315958D01*
X603366Y315938D01*
X602881Y315877D01*
X602426Y315776D01*
X602002Y315634D01*
X601607Y315452D01*
X601243Y315229D01*
X600909Y314966D01*
X600605Y314662D01*
X600334Y314322D01*
X600099Y313949D01*
X599900Y313543D01*
X599738Y313105D01*
X599611Y312635D01*
X599521Y312131D01*
X599467Y311596D01*
X599449Y311027D01*
X599467Y310462D01*
X599522Y309927D01*
X599613Y309421D01*
X599741Y308946D01*
X599905Y308501D01*
X600106Y308085D01*
X600344Y307700D01*
X600618Y307344D01*
X600924Y307025D01*
X601259Y306749D01*
X601622Y306514D01*
X602014Y306323D01*
X602434Y306174D01*
X602882Y306068D01*
X603358Y306004D01*
X603863Y305982D01*
G37*
%LPD*%
G36*
X617240Y304625D02*
X616867Y304633D01*
X616506Y304659D01*
X616158Y304702D01*
X615821Y304763D01*
X615496Y304840D01*
X615184Y304935D01*
X614883Y305047D01*
X614595Y305177D01*
X614320Y305322D01*
X614062Y305484D01*
X613819Y305661D01*
X613592Y305853D01*
X613381Y306061D01*
X613186Y306285D01*
X613007Y306524D01*
X612843Y306779D01*
X612697Y307048D01*
X612571Y307330D01*
X612464Y307624D01*
X612377Y307931D01*
X612309Y308251D01*
X612260Y308583D01*
X612231Y308927D01*
X612221Y309284D01*
X612221Y317141D01*
X613894Y317141D01*
X613894Y309425D01*
X613908Y309015D01*
X613948Y308630D01*
X614015Y308271D01*
X614109Y307938D01*
X614230Y307630D01*
X614377Y307347D01*
X614551Y307090D01*
X614753Y306858D01*
X614979Y306653D01*
X615229Y306475D01*
X615503Y306325D01*
X615801Y306201D01*
X616123Y306106D01*
X616469Y306037D01*
X616838Y305996D01*
X617231Y305982D01*
X617636Y305997D01*
X618017Y306039D01*
X618375Y306110D01*
X618710Y306209D01*
X619022Y306337D01*
X619311Y306492D01*
X619577Y306676D01*
X619819Y306889D01*
X620036Y307129D01*
X620224Y307394D01*
X620382Y307686D01*
X620512Y308005D01*
X620613Y308349D01*
X620686Y308719D01*
X620729Y309116D01*
X620743Y309538D01*
X620743Y317141D01*
X622408Y317141D01*
X622408Y309442D01*
X622398Y309074D01*
X622368Y308719D01*
X622318Y308377D01*
X622249Y308047D01*
X622159Y307731D01*
X622050Y307427D01*
X621921Y307136D01*
X621773Y306858D01*
X621606Y306595D01*
X621422Y306347D01*
X621222Y306116D01*
X621006Y305900D01*
X620774Y305701D01*
X620524Y305517D01*
X620259Y305350D01*
X619977Y305199D01*
X619680Y305064D01*
X619371Y304948D01*
X619048Y304849D01*
X618713Y304768D01*
X618364Y304706D01*
X618002Y304661D01*
X617628Y304634D01*
X617240Y304625D01*
G37*
G36*
X630081Y304800D02*
X628417Y304800D01*
X628417Y315774D01*
X624178Y315774D01*
X624178Y317141D01*
X634320Y317141D01*
X634320Y315774D01*
X630081Y315774D01*
X630081Y304800D01*
G37*
G36*
X623336Y241125D02*
X622855Y241140D01*
X622400Y241183D01*
X621973Y241257D01*
X621572Y241359D01*
X621199Y241491D01*
X620852Y241652D01*
X620533Y241842D01*
X620240Y242062D01*
X619978Y242309D01*
X619751Y242580D01*
X619559Y242876D01*
X619402Y243196D01*
X619280Y243541D01*
X619193Y243911D01*
X619141Y244306D01*
X619123Y244725D01*
X619134Y245021D01*
X619167Y245305D01*
X619221Y245577D01*
X619296Y245837D01*
X619394Y246085D01*
X619512Y246321D01*
X619653Y246545D01*
X619815Y246757D01*
X619994Y246952D01*
X620185Y247128D01*
X620388Y247283D01*
X620603Y247418D01*
X620831Y247533D01*
X621070Y247627D01*
X621321Y247701D01*
X621584Y247755D01*
X621584Y247790D01*
X621339Y247858D01*
X621107Y247943D01*
X620889Y248045D01*
X620683Y248165D01*
X620491Y248301D01*
X620313Y248455D01*
X620147Y248626D01*
X619995Y248815D01*
X619858Y249016D01*
X619740Y249226D01*
X619640Y249444D01*
X619558Y249671D01*
X619494Y249906D01*
X619449Y250150D01*
X619421Y250402D01*
X619412Y250663D01*
X619429Y251007D01*
X619478Y251335D01*
X619561Y251645D01*
X619676Y251939D01*
X619825Y252217D01*
X620006Y252478D01*
X620220Y252722D01*
X620468Y252949D01*
X620743Y253154D01*
X621041Y253332D01*
X621361Y253483D01*
X621704Y253606D01*
X622069Y253702D01*
X622457Y253770D01*
X622868Y253811D01*
X623301Y253825D01*
X623745Y253811D01*
X624164Y253771D01*
X624560Y253704D01*
X624931Y253610D01*
X625279Y253489D01*
X625603Y253342D01*
X625902Y253168D01*
X626178Y252966D01*
X626426Y252742D01*
X626640Y252499D01*
X626821Y252238D01*
X626970Y251957D01*
X627085Y251657D01*
X627168Y251339D01*
X627217Y251002D01*
X627234Y250645D01*
X627225Y250385D01*
X627197Y250132D01*
X627151Y249889D01*
X627087Y249653D01*
X627004Y249427D01*
X626904Y249208D01*
X626784Y248999D01*
X626647Y248797D01*
X626493Y248609D01*
X626327Y248440D01*
X626309Y248425D01*
X626146Y248289D01*
X625953Y248156D01*
X625746Y248041D01*
X625525Y247945D01*
X625291Y247867D01*
X625044Y247808D01*
X625044Y247773D01*
X625331Y247715D01*
X625602Y247638D01*
X625857Y247541D01*
X626095Y247426D01*
X626317Y247291D01*
X626522Y247136D01*
X626711Y246963D01*
X626850Y246807D01*
X626883Y246770D01*
X627037Y246561D01*
X627171Y246339D01*
X627284Y246105D01*
X627376Y245858D01*
X627448Y245598D01*
X627499Y245325D01*
X627530Y245040D01*
X627540Y244742D01*
X627523Y244327D01*
X627472Y243935D01*
X627387Y243567D01*
X627269Y243223D01*
X627116Y242901D01*
X626929Y242604D01*
X626709Y242330D01*
X626454Y242080D01*
X626168Y241856D01*
X625852Y241662D01*
X625507Y241498D01*
X625132Y241363D01*
X624727Y241259D01*
X624293Y241185D01*
X623829Y241140D01*
X623336Y241125D01*
G37*
%LPC*%
G36*
X623354Y242307D02*
X623665Y242317D01*
X623956Y242346D01*
X624227Y242394D01*
X624477Y242462D01*
X624706Y242548D01*
X624915Y242655D01*
X625104Y242780D01*
X625272Y242925D01*
X625420Y243091D01*
X625548Y243279D01*
X625656Y243491D01*
X625745Y243725D01*
X625814Y243982D01*
X625863Y244262D01*
X625893Y244565D01*
X625902Y244891D01*
X625892Y245169D01*
X625860Y245429D01*
X625806Y245672D01*
X625732Y245897D01*
X625636Y246105D01*
X625518Y246294D01*
X625379Y246466D01*
X625219Y246621D01*
X625040Y246757D01*
X624843Y246876D01*
X624629Y246976D01*
X624398Y247058D01*
X624150Y247121D01*
X623884Y247167D01*
X623601Y247194D01*
X623301Y247203D01*
X623009Y247193D01*
X622734Y247164D01*
X622475Y247115D01*
X622233Y247047D01*
X622006Y246959D01*
X621797Y246851D01*
X621604Y246724D01*
X621427Y246577D01*
X621269Y246413D01*
X621132Y246235D01*
X621016Y246041D01*
X620921Y245834D01*
X620847Y245611D01*
X620795Y245374D01*
X620763Y245122D01*
X620752Y244856D01*
X620763Y244547D01*
X620793Y244259D01*
X620844Y243990D01*
X620915Y243741D01*
X621006Y243512D01*
X621118Y243303D01*
X621250Y243114D01*
X621403Y242944D01*
X621575Y242795D01*
X621768Y242666D01*
X621982Y242556D01*
X622216Y242467D01*
X622470Y242397D01*
X622744Y242347D01*
X623039Y242317D01*
X623354Y242307D01*
G37*
G36*
X623319Y248386D02*
X623588Y248394D01*
X623842Y248418D01*
X624078Y248458D01*
X624298Y248514D01*
X624502Y248586D01*
X624689Y248674D01*
X624859Y248778D01*
X625013Y248898D01*
X625150Y249036D01*
X625268Y249194D01*
X625368Y249372D01*
X625450Y249569D01*
X625514Y249787D01*
X625559Y250024D01*
X625587Y250281D01*
X625596Y250558D01*
X625587Y250811D01*
X625560Y251048D01*
X625515Y251269D01*
X625452Y251474D01*
X625372Y251662D01*
X625273Y251833D01*
X625157Y251989D01*
X625022Y252128D01*
X624870Y252250D01*
X624699Y252357D01*
X624511Y252447D01*
X624305Y252520D01*
X624081Y252577D01*
X623839Y252618D01*
X623579Y252643D01*
X623301Y252651D01*
X623031Y252643D01*
X622778Y252618D01*
X622541Y252577D01*
X622321Y252520D01*
X622118Y252446D01*
X621931Y252355D01*
X621760Y252249D01*
X621606Y252126D01*
X621470Y251986D01*
X621351Y251831D01*
X621251Y251659D01*
X621169Y251471D01*
X621106Y251267D01*
X621060Y251047D01*
X621033Y250810D01*
X621024Y250558D01*
X621033Y250301D01*
X621061Y250059D01*
X621108Y249834D01*
X621174Y249624D01*
X621258Y249430D01*
X621361Y249251D01*
X621483Y249089D01*
X621624Y248942D01*
X621782Y248811D01*
X621955Y248699D01*
X622143Y248603D01*
X622347Y248525D01*
X622567Y248464D01*
X622802Y248420D01*
X623053Y248394D01*
X623319Y248386D01*
G37*
%LPD*%
G36*
X589582Y241300D02*
X587909Y241300D01*
X587909Y253641D01*
X593103Y253641D01*
X593607Y253626D01*
X594082Y253580D01*
X594528Y253504D01*
X594944Y253398D01*
X595331Y253261D01*
X595689Y253094D01*
X596018Y252896D01*
X596317Y252669D01*
X596584Y252413D01*
X596815Y252133D01*
X597011Y251827D01*
X597171Y251497D01*
X597296Y251142D01*
X597385Y250762D01*
X597438Y250357D01*
X597456Y249927D01*
X597438Y249500D01*
X597384Y249096D01*
X597295Y248714D01*
X597170Y248355D01*
X597009Y248018D01*
X596813Y247704D01*
X596581Y247412D01*
X596313Y247142D01*
X596014Y246900D01*
X595690Y246690D01*
X595340Y246512D01*
X594965Y246367D01*
X594564Y246254D01*
X594138Y246173D01*
X593686Y246125D01*
X593208Y246108D01*
X589582Y246108D01*
X589582Y241300D01*
G37*
%LPC*%
G36*
X592971Y247431D02*
X593311Y247441D01*
X593628Y247470D01*
X593924Y247518D01*
X594198Y247586D01*
X594449Y247673D01*
X594679Y247780D01*
X594887Y247905D01*
X595073Y248051D01*
X595238Y248215D01*
X595380Y248399D01*
X595500Y248603D01*
X595599Y248825D01*
X595676Y249067D01*
X595730Y249329D01*
X595763Y249609D01*
X595774Y249910D01*
X595763Y250199D01*
X595729Y250470D01*
X595673Y250722D01*
X595595Y250956D01*
X595494Y251171D01*
X595370Y251367D01*
X595224Y251544D01*
X595056Y251703D01*
X594865Y251843D01*
X594652Y251964D01*
X594416Y252067D01*
X594158Y252151D01*
X593878Y252217D01*
X593575Y252263D01*
X593249Y252291D01*
X592901Y252301D01*
X589582Y252301D01*
X589582Y247431D01*
X592971Y247431D01*
G37*
%LPD*%
G36*
X574460Y241300D02*
X572971Y241300D01*
X572971Y253641D01*
X575170Y253641D01*
X578454Y245084D01*
X578626Y244548D01*
X578791Y243976D01*
X579006Y243122D01*
X579114Y243563D01*
X579299Y244186D01*
X579487Y244767D01*
X579602Y245084D01*
X582825Y253641D01*
X584971Y253641D01*
X584971Y241300D01*
X583464Y241300D01*
X583464Y249533D01*
X583484Y250873D01*
X583543Y252161D01*
X583136Y250764D01*
X582949Y250193D01*
X582772Y249708D01*
X579584Y241300D01*
X578410Y241300D01*
X575179Y249708D01*
X574688Y251197D01*
X574399Y252161D01*
X574425Y251188D01*
X574460Y249533D01*
X574460Y241300D01*
G37*
G36*
X653210Y241300D02*
X651721Y241300D01*
X651721Y253641D01*
X653666Y253641D01*
X660340Y243060D01*
X660261Y244541D01*
X660235Y245548D01*
X660235Y253641D01*
X661741Y253641D01*
X661741Y241300D01*
X659727Y241300D01*
X653123Y251810D01*
X653167Y250961D01*
X653210Y249498D01*
X653210Y241300D01*
G37*
G36*
X636029Y241300D02*
X634540Y241300D01*
X634540Y244094D01*
X628724Y244094D01*
X628724Y245320D01*
X634373Y253641D01*
X636029Y253641D01*
X636029Y245338D01*
X637763Y245338D01*
X637763Y244094D01*
X636029Y244094D01*
X636029Y241300D01*
G37*
%LPC*%
G36*
X634540Y245338D02*
X634540Y251863D01*
X634295Y251399D01*
X633953Y250821D01*
X630791Y246161D01*
X630318Y245513D01*
X630178Y245338D01*
X634540Y245338D01*
G37*
%LPD*%
G36*
X649475Y241300D02*
X639753Y241300D01*
X639753Y253641D01*
X649116Y253641D01*
X649116Y252274D01*
X641426Y252274D01*
X641426Y248316D01*
X648590Y248316D01*
X648590Y246967D01*
X641426Y246967D01*
X641426Y242666D01*
X649475Y242666D01*
X649475Y241300D01*
G37*
G36*
X613218Y241125D02*
X612798Y241137D01*
X612397Y241172D01*
X612018Y241231D01*
X611659Y241313D01*
X611322Y241419D01*
X611005Y241549D01*
X610709Y241702D01*
X610433Y241878D01*
X610180Y242077D01*
X609952Y242297D01*
X609748Y242538D01*
X609568Y242800D01*
X609413Y243083D01*
X609282Y243387D01*
X609175Y243713D01*
X609093Y244059D01*
X610687Y244243D01*
X610756Y244021D01*
X610837Y243814D01*
X610930Y243621D01*
X611035Y243442D01*
X611152Y243278D01*
X611282Y243127D01*
X611424Y242992D01*
X611578Y242870D01*
X611745Y242763D01*
X611924Y242670D01*
X612115Y242591D01*
X612318Y242527D01*
X612533Y242477D01*
X612761Y242441D01*
X613001Y242419D01*
X613254Y242412D01*
X613562Y242424D01*
X613854Y242460D01*
X614128Y242520D01*
X614386Y242604D01*
X614625Y242712D01*
X614848Y242843D01*
X615054Y242999D01*
X615242Y243179D01*
X615410Y243379D01*
X615556Y243598D01*
X615679Y243834D01*
X615780Y244089D01*
X615859Y244361D01*
X615915Y244651D01*
X615949Y244959D01*
X615960Y245285D01*
X615949Y245569D01*
X615915Y245840D01*
X615858Y246096D01*
X615779Y246338D01*
X615678Y246567D01*
X615553Y246781D01*
X615407Y246982D01*
X615237Y247168D01*
X615049Y247337D01*
X614845Y247482D01*
X614625Y247606D01*
X614389Y247707D01*
X614137Y247785D01*
X613870Y247842D01*
X613587Y247875D01*
X613289Y247886D01*
X612974Y247874D01*
X612671Y247836D01*
X612379Y247773D01*
X612097Y247685D01*
X611821Y247567D01*
X611546Y247413D01*
X611270Y247225D01*
X610994Y247002D01*
X609452Y247002D01*
X609864Y253641D01*
X616880Y253641D01*
X616880Y252301D01*
X611300Y252301D01*
X611064Y248386D01*
X611328Y248570D01*
X611607Y248731D01*
X611903Y248866D01*
X612213Y248977D01*
X612540Y249063D01*
X612882Y249125D01*
X613239Y249162D01*
X613613Y249174D01*
X614056Y249157D01*
X614477Y249107D01*
X614875Y249024D01*
X615249Y248907D01*
X615601Y248757D01*
X615929Y248573D01*
X616234Y248356D01*
X616516Y248105D01*
X616770Y247828D01*
X616989Y247531D01*
X617175Y247213D01*
X617327Y246875D01*
X617446Y246517D01*
X617530Y246138D01*
X617581Y245739D01*
X617598Y245320D01*
X617580Y244845D01*
X617525Y244396D01*
X617435Y243972D01*
X617308Y243575D01*
X617144Y243204D01*
X616945Y242858D01*
X616709Y242539D01*
X616437Y242246D01*
X616133Y241983D01*
X615801Y241755D01*
X615441Y241563D01*
X615052Y241405D01*
X614636Y241283D01*
X614191Y241195D01*
X613719Y241142D01*
X613218Y241125D01*
G37*
G36*
X607475Y241300D02*
X599741Y241300D01*
X599741Y242640D01*
X602886Y242640D01*
X602886Y252134D01*
X600100Y250146D01*
X600100Y251635D01*
X603017Y253641D01*
X604471Y253641D01*
X604471Y242640D01*
X607475Y242640D01*
X607475Y241300D01*
G37*
G36*
X336077Y192077D02*
X334789Y192077D01*
X334789Y195825D01*
X331076Y195825D01*
X331076Y197104D01*
X334789Y197104D01*
X334789Y200853D01*
X336077Y200853D01*
X336077Y197104D01*
X339791Y197104D01*
X339791Y195825D01*
X336077Y195825D01*
X336077Y192077D01*
G37*
G36*
X449676Y194564D02*
X445297Y194564D01*
X445297Y195965D01*
X449676Y195965D01*
X449676Y194564D01*
G37*
G36*
X355600Y316336D02*
X338314Y316336D01*
X338314Y322053D01*
X338323Y322594D01*
X338349Y323120D01*
X338392Y323629D01*
X338452Y324124D01*
X338529Y324602D01*
X338624Y325065D01*
X338736Y325512D01*
X338865Y325943D01*
X339011Y326359D01*
X339175Y326759D01*
X339355Y327144D01*
X339553Y327513D01*
X339768Y327866D01*
X340000Y328203D01*
X340250Y328525D01*
X340516Y328831D01*
X340799Y329120D01*
X341096Y329390D01*
X341408Y329642D01*
X341734Y329875D01*
X342074Y330089D01*
X342429Y330285D01*
X342799Y330462D01*
X343183Y330621D01*
X343582Y330760D01*
X343995Y330882D01*
X344423Y330984D01*
X344865Y331068D01*
X345322Y331133D01*
X345793Y331180D01*
X346279Y331208D01*
X346779Y331217D01*
X347437Y331201D01*
X348075Y331152D01*
X348691Y331071D01*
X349287Y330957D01*
X349861Y330810D01*
X350415Y330631D01*
X350948Y330419D01*
X351460Y330174D01*
X351946Y329900D01*
X352404Y329599D01*
X352832Y329270D01*
X353231Y328914D01*
X353600Y328531D01*
X353940Y328120D01*
X354251Y327683D01*
X354533Y327218D01*
X354783Y326730D01*
X355000Y326224D01*
X355183Y325700D01*
X355333Y325157D01*
X355450Y324596D01*
X355533Y324016D01*
X355583Y323418D01*
X355600Y322801D01*
X355600Y316336D01*
G37*
%LPC*%
G36*
X353723Y318679D02*
X353723Y322531D01*
X353710Y323000D01*
X353671Y323453D01*
X353606Y323893D01*
X353514Y324318D01*
X353397Y324729D01*
X353254Y325125D01*
X353084Y325507D01*
X352889Y325874D01*
X352669Y326224D01*
X352426Y326553D01*
X352160Y326862D01*
X351871Y327149D01*
X351558Y327415D01*
X351223Y327661D01*
X350865Y327885D01*
X350484Y328089D01*
X350083Y328270D01*
X349664Y328427D01*
X349227Y328560D01*
X348773Y328669D01*
X348301Y328753D01*
X347811Y328813D01*
X347304Y328850D01*
X346779Y328862D01*
X346383Y328855D01*
X346000Y328834D01*
X345628Y328800D01*
X345268Y328752D01*
X344920Y328690D01*
X344583Y328614D01*
X344259Y328525D01*
X343947Y328422D01*
X343647Y328305D01*
X343358Y328174D01*
X343082Y328030D01*
X342817Y327871D01*
X342564Y327700D01*
X342324Y327514D01*
X342095Y327314D01*
X341878Y327101D01*
X341674Y326875D01*
X341483Y326637D01*
X341305Y326386D01*
X341140Y326123D01*
X340989Y325847D01*
X340850Y325559D01*
X340725Y325259D01*
X340613Y324947D01*
X340514Y324622D01*
X340429Y324285D01*
X340356Y323936D01*
X340297Y323574D01*
X340251Y323200D01*
X340218Y322813D01*
X340198Y322415D01*
X340191Y322004D01*
X340191Y318679D01*
X353723Y318679D01*
G37*
%LPD*%
G36*
X355600Y281461D02*
X338314Y281461D01*
X338314Y289595D01*
X338335Y290304D01*
X338396Y290971D01*
X338498Y291597D01*
X338641Y292182D01*
X338825Y292725D01*
X339049Y293226D01*
X339315Y293685D01*
X339621Y294103D01*
X339964Y294476D01*
X340338Y294798D01*
X340745Y295071D01*
X341184Y295295D01*
X341654Y295469D01*
X342157Y295593D01*
X342420Y295636D01*
X342692Y295667D01*
X342971Y295686D01*
X343258Y295692D01*
X343730Y295674D01*
X344183Y295622D01*
X344617Y295534D01*
X345031Y295411D01*
X345426Y295254D01*
X345802Y295061D01*
X346159Y294833D01*
X346497Y294569D01*
X346810Y294276D01*
X347093Y293955D01*
X347345Y293608D01*
X347438Y293452D01*
X347568Y293234D01*
X347759Y292833D01*
X347921Y292406D01*
X348052Y291952D01*
X348153Y291472D01*
X351323Y293561D01*
X355600Y296379D01*
X355600Y293680D01*
X348423Y289190D01*
X348423Y283804D01*
X355600Y283804D01*
X355600Y281461D01*
G37*
%LPC*%
G36*
X346571Y283804D02*
X346571Y289460D01*
X346557Y289910D01*
X346517Y290334D01*
X346449Y290731D01*
X346355Y291102D01*
X346233Y291447D01*
X346084Y291766D01*
X345909Y292058D01*
X345706Y292324D01*
X345479Y292562D01*
X345230Y292767D01*
X344960Y292941D01*
X344668Y293083D01*
X344354Y293194D01*
X344019Y293273D01*
X343662Y293321D01*
X343283Y293337D01*
X342917Y293321D01*
X342573Y293272D01*
X342252Y293192D01*
X341953Y293080D01*
X341677Y292936D01*
X341423Y292760D01*
X341192Y292552D01*
X340983Y292312D01*
X340797Y292042D01*
X340636Y291744D01*
X340500Y291417D01*
X340389Y291062D01*
X340303Y290679D01*
X340241Y290268D01*
X340204Y289829D01*
X340191Y289362D01*
X340191Y283804D01*
X346571Y283804D01*
G37*
%LPD*%
G36*
X355600Y299586D02*
X338314Y299586D01*
X338314Y312701D01*
X340228Y312701D01*
X340228Y301929D01*
X345773Y301929D01*
X345773Y311965D01*
X347663Y311965D01*
X347663Y301929D01*
X353686Y301929D01*
X353686Y313204D01*
X355600Y313204D01*
X355600Y299586D01*
G37*
G36*
X710773Y512342D02*
X710773Y513901D01*
X717211Y515504D01*
X717749Y515629D01*
X718945Y515881D01*
X718297Y516030D01*
X710773Y518009D01*
X710773Y519700D01*
X717281Y521355D01*
X718945Y521758D01*
X717728Y522029D01*
X710773Y523825D01*
X710773Y525366D01*
X720250Y522651D01*
X720250Y520821D01*
X713550Y519165D01*
X712070Y518850D01*
X713204Y518605D01*
X715335Y518075D01*
X720250Y516818D01*
X720250Y514996D01*
X710773Y512342D01*
G37*
G36*
X720250Y544487D02*
X707252Y544487D01*
X707252Y546064D01*
X710633Y546064D01*
X711176Y546056D01*
X711737Y546033D01*
X712394Y545994D01*
X712394Y546020D01*
X711960Y546287D01*
X711589Y546580D01*
X711279Y546898D01*
X711032Y547242D01*
X710930Y547426D01*
X710842Y547623D01*
X710767Y547831D01*
X710707Y548051D01*
X710659Y548283D01*
X710625Y548527D01*
X710605Y548783D01*
X710598Y549051D01*
X710610Y549423D01*
X710646Y549771D01*
X710706Y550093D01*
X710790Y550390D01*
X710897Y550661D01*
X711029Y550907D01*
X711185Y551128D01*
X711364Y551324D01*
X711572Y551495D01*
X711813Y551643D01*
X712085Y551769D01*
X712390Y551872D01*
X712728Y551952D01*
X713098Y552009D01*
X713500Y552043D01*
X713935Y552055D01*
X720250Y552055D01*
X720250Y550470D01*
X714242Y550470D01*
X713774Y550458D01*
X713371Y550424D01*
X713032Y550366D01*
X712757Y550286D01*
X712530Y550179D01*
X712336Y550043D01*
X712173Y549877D01*
X712043Y549681D01*
X711944Y549451D01*
X711872Y549180D01*
X711830Y548868D01*
X711816Y548516D01*
X711828Y548245D01*
X711864Y547988D01*
X711924Y547744D01*
X712008Y547515D01*
X712117Y547299D01*
X712249Y547097D01*
X712406Y546908D01*
X712586Y546734D01*
X712787Y546577D01*
X713005Y546441D01*
X713240Y546326D01*
X713491Y546232D01*
X713758Y546158D01*
X714043Y546106D01*
X714344Y546074D01*
X714662Y546064D01*
X720250Y546064D01*
X720250Y544487D01*
G37*
G36*
X718025Y503899D02*
X717754Y505292D01*
X717938Y505349D01*
X718109Y505419D01*
X718268Y505503D01*
X718414Y505601D01*
X718547Y505711D01*
X718668Y505835D01*
X718776Y505973D01*
X718871Y506124D01*
X718954Y506289D01*
X719026Y506470D01*
X719087Y506666D01*
X719137Y506877D01*
X719203Y507346D01*
X719225Y507876D01*
X719220Y508166D01*
X719202Y508435D01*
X719174Y508685D01*
X719133Y508915D01*
X719082Y509124D01*
X719018Y509313D01*
X718944Y509483D01*
X718857Y509632D01*
X718760Y509762D01*
X718651Y509875D01*
X718530Y509971D01*
X718398Y510049D01*
X718254Y510110D01*
X718099Y510153D01*
X717932Y510179D01*
X717754Y510188D01*
X717487Y510164D01*
X717246Y510092D01*
X717031Y509971D01*
X716843Y509802D01*
X716675Y509580D01*
X716523Y509299D01*
X716386Y508958D01*
X716265Y508559D01*
X715967Y507429D01*
X715793Y506799D01*
X715620Y506267D01*
X715449Y505834D01*
X715280Y505498D01*
X715102Y505226D01*
X714906Y504986D01*
X714692Y504778D01*
X714461Y504600D01*
X714206Y504458D01*
X713924Y504357D01*
X713615Y504296D01*
X713278Y504276D01*
X712964Y504290D01*
X712669Y504334D01*
X712393Y504406D01*
X712136Y504507D01*
X711899Y504637D01*
X711681Y504796D01*
X711483Y504983D01*
X711303Y505200D01*
X711144Y505444D01*
X711006Y505715D01*
X710890Y506012D01*
X710794Y506335D01*
X710720Y506685D01*
X710667Y507061D01*
X710635Y507464D01*
X710624Y507893D01*
X710633Y508275D01*
X710659Y508637D01*
X710702Y508978D01*
X710762Y509300D01*
X710840Y509601D01*
X710935Y509883D01*
X711047Y510144D01*
X711176Y510385D01*
X711325Y510605D01*
X711494Y510805D01*
X711684Y510983D01*
X711894Y511139D01*
X712126Y511275D01*
X712378Y511389D01*
X712651Y511482D01*
X712945Y511554D01*
X713121Y510135D01*
X712968Y510096D01*
X712824Y510042D01*
X712689Y509975D01*
X712563Y509893D01*
X712340Y509689D01*
X712153Y509430D01*
X712005Y509119D01*
X711900Y508759D01*
X711837Y508350D01*
X711816Y507893D01*
X711836Y507394D01*
X711897Y506965D01*
X711942Y506776D01*
X711998Y506606D01*
X712064Y506452D01*
X712140Y506317D01*
X712226Y506198D01*
X712322Y506094D01*
X712429Y506007D01*
X712547Y505936D01*
X712675Y505880D01*
X712813Y505840D01*
X712962Y505817D01*
X713121Y505809D01*
X713313Y505822D01*
X713488Y505861D01*
X713646Y505927D01*
X713786Y506019D01*
X713913Y506136D01*
X714029Y506279D01*
X714136Y506447D01*
X714233Y506641D01*
X714334Y506903D01*
X714452Y507280D01*
X714741Y508375D01*
X714896Y508957D01*
X715044Y509452D01*
X715187Y509859D01*
X715323Y510179D01*
X715460Y510441D01*
X715605Y510673D01*
X715756Y510876D01*
X715915Y511051D01*
X716083Y511201D01*
X716264Y511334D01*
X716457Y511449D01*
X716663Y511545D01*
X716883Y511622D01*
X717118Y511677D01*
X717367Y511710D01*
X717631Y511721D01*
X717957Y511705D01*
X718263Y511657D01*
X718550Y511578D01*
X718818Y511468D01*
X719067Y511325D01*
X719296Y511152D01*
X719507Y510946D01*
X719698Y510709D01*
X719869Y510443D01*
X720016Y510153D01*
X720141Y509836D01*
X720243Y509495D01*
X720323Y509128D01*
X720380Y508736D01*
X720414Y508318D01*
X720425Y507876D01*
X720416Y507446D01*
X720389Y507042D01*
X720343Y506663D01*
X720280Y506309D01*
X720198Y505981D01*
X720098Y505677D01*
X719979Y505400D01*
X719843Y505147D01*
X719687Y504918D01*
X719511Y504710D01*
X719314Y504522D01*
X719097Y504356D01*
X718860Y504210D01*
X718602Y504086D01*
X718324Y503982D01*
X718025Y503899D01*
G37*
G36*
X715503Y535037D02*
X714923Y535053D01*
X714378Y535103D01*
X713869Y535185D01*
X713395Y535300D01*
X712957Y535448D01*
X712554Y535628D01*
X712187Y535842D01*
X711855Y536088D01*
X711560Y536365D01*
X711305Y536670D01*
X711089Y537004D01*
X710912Y537367D01*
X710775Y537758D01*
X710677Y538177D01*
X710618Y538625D01*
X710598Y539101D01*
X710610Y539457D01*
X710645Y539797D01*
X710704Y540122D01*
X710786Y540431D01*
X710892Y540725D01*
X711022Y541003D01*
X711175Y541266D01*
X711351Y541514D01*
X711549Y541743D01*
X711764Y541949D01*
X711996Y542133D01*
X712247Y542295D01*
X712515Y542434D01*
X712801Y542551D01*
X713105Y542646D01*
X713427Y542718D01*
X713550Y541098D01*
X713176Y541013D01*
X712842Y540881D01*
X712550Y540702D01*
X712297Y540476D01*
X712188Y540345D01*
X712094Y540200D01*
X712014Y540043D01*
X711949Y539872D01*
X711898Y539688D01*
X711862Y539491D01*
X711840Y539281D01*
X711833Y539057D01*
X711846Y538755D01*
X711885Y538474D01*
X711950Y538215D01*
X712041Y537978D01*
X712158Y537762D01*
X712301Y537568D01*
X712470Y537395D01*
X712665Y537244D01*
X712891Y537113D01*
X713152Y536999D01*
X713449Y536903D01*
X713782Y536824D01*
X714150Y536762D01*
X714554Y536719D01*
X714993Y536692D01*
X715468Y536684D01*
X715925Y536693D01*
X716352Y536721D01*
X716749Y536767D01*
X717114Y536832D01*
X717449Y536916D01*
X717754Y537019D01*
X718028Y537140D01*
X718271Y537279D01*
X718484Y537438D01*
X718669Y537615D01*
X718826Y537811D01*
X718954Y538026D01*
X719053Y538260D01*
X719125Y538512D01*
X719167Y538784D01*
X719181Y539075D01*
X719174Y539281D01*
X719153Y539478D01*
X719117Y539667D01*
X719068Y539847D01*
X719004Y540018D01*
X718925Y540181D01*
X718833Y540335D01*
X718726Y540480D01*
X718605Y540615D01*
X718468Y540736D01*
X718315Y540843D01*
X718148Y540937D01*
X717965Y541017D01*
X717767Y541084D01*
X717553Y541137D01*
X717325Y541177D01*
X717430Y542771D01*
X717763Y542712D01*
X718078Y542629D01*
X718377Y542521D01*
X718658Y542388D01*
X718922Y542230D01*
X719169Y542047D01*
X719398Y541839D01*
X719611Y541606D01*
X719802Y541352D01*
X719967Y541083D01*
X720107Y540796D01*
X720222Y540494D01*
X720311Y540174D01*
X720374Y539839D01*
X720412Y539487D01*
X720425Y539118D01*
X720406Y538636D01*
X720347Y538183D01*
X720248Y537760D01*
X720111Y537366D01*
X719934Y537001D01*
X719718Y536666D01*
X719463Y536360D01*
X719168Y536084D01*
X718836Y535838D01*
X718468Y535626D01*
X718064Y535446D01*
X717624Y535299D01*
X717147Y535184D01*
X716635Y535102D01*
X716087Y535053D01*
X715503Y535037D01*
G37*
G36*
X711921Y529578D02*
X710773Y529578D01*
X710773Y530734D01*
X708654Y531198D01*
X708654Y532249D01*
X710773Y532249D01*
X710773Y534001D01*
X711921Y534001D01*
X711921Y532249D01*
X717903Y532249D01*
X718219Y532263D01*
X718484Y532305D01*
X718698Y532375D01*
X718862Y532472D01*
X718983Y532605D01*
X719069Y532778D01*
X719120Y532992D01*
X719138Y533248D01*
X719107Y533633D01*
X719015Y534158D01*
X720180Y534158D01*
X720272Y533767D01*
X720338Y533370D01*
X720377Y532970D01*
X720390Y532564D01*
X720382Y532335D01*
X720357Y532121D01*
X720315Y531921D01*
X720256Y531737D01*
X720181Y531567D01*
X720088Y531412D01*
X719979Y531271D01*
X719854Y531146D01*
X719711Y531035D01*
X719552Y530939D01*
X719376Y530857D01*
X719183Y530791D01*
X718974Y530739D01*
X718747Y530702D01*
X718504Y530680D01*
X718244Y530673D01*
X711921Y530673D01*
X711921Y529578D01*
G37*
G36*
X720250Y526506D02*
X710773Y526506D01*
X710773Y528083D01*
X720250Y528083D01*
X720250Y526506D01*
G37*
G36*
X708759Y526506D02*
X707252Y526506D01*
X707252Y528083D01*
X708759Y528083D01*
X708759Y526506D01*
G37*
G36*
X733073Y425713D02*
X732708Y425719D01*
X732353Y425738D01*
X732008Y425770D01*
X731673Y425814D01*
X731349Y425871D01*
X731034Y425941D01*
X730730Y426023D01*
X730435Y426118D01*
X730151Y426226D01*
X729877Y426346D01*
X729613Y426479D01*
X729359Y426625D01*
X728881Y426954D01*
X728444Y427333D01*
X728053Y427758D01*
X727877Y427986D01*
X727714Y428223D01*
X727564Y428470D01*
X727427Y428727D01*
X727303Y428994D01*
X727192Y429271D01*
X727095Y429558D01*
X727010Y429855D01*
X726938Y430162D01*
X726880Y430478D01*
X726834Y430805D01*
X726801Y431141D01*
X726782Y431488D01*
X726775Y431844D01*
X726787Y432307D01*
X726822Y432754D01*
X726881Y433186D01*
X726963Y433602D01*
X727068Y434003D01*
X727197Y434388D01*
X727349Y434757D01*
X727524Y435111D01*
X727722Y435447D01*
X727941Y435762D01*
X728181Y436057D01*
X728443Y436332D01*
X728725Y436586D01*
X729029Y436820D01*
X729354Y437033D01*
X729701Y437226D01*
X730066Y437398D01*
X730447Y437546D01*
X730844Y437672D01*
X731257Y437775D01*
X731687Y437855D01*
X732133Y437912D01*
X732595Y437946D01*
X733073Y437958D01*
X733549Y437946D01*
X734010Y437911D01*
X734457Y437853D01*
X734888Y437773D01*
X735304Y437668D01*
X735705Y437541D01*
X736091Y437391D01*
X736462Y437217D01*
X736815Y437022D01*
X737147Y436807D01*
X737458Y436572D01*
X737748Y436316D01*
X738016Y436041D01*
X738264Y435745D01*
X738490Y435429D01*
X738696Y435093D01*
X738878Y434740D01*
X739037Y434370D01*
X739171Y433985D01*
X739280Y433585D01*
X739366Y433169D01*
X739426Y432737D01*
X739463Y432290D01*
X739475Y431827D01*
X739463Y431360D01*
X739427Y430909D01*
X739367Y430474D01*
X739283Y430056D01*
X739174Y429654D01*
X739042Y429269D01*
X738885Y428899D01*
X738704Y428546D01*
X738501Y428212D01*
X738276Y427898D01*
X738030Y427604D01*
X737762Y427330D01*
X737472Y427077D01*
X737162Y426844D01*
X736829Y426632D01*
X736475Y426440D01*
X736103Y426270D01*
X735716Y426122D01*
X735313Y425997D01*
X734896Y425895D01*
X734463Y425815D01*
X734015Y425759D01*
X733551Y425724D01*
X733073Y425713D01*
G37*
%LPC*%
G36*
X733073Y427412D02*
X733638Y427431D01*
X734173Y427485D01*
X734679Y427577D01*
X735154Y427705D01*
X735599Y427869D01*
X736015Y428070D01*
X736400Y428307D01*
X736756Y428582D01*
X737075Y428888D01*
X737352Y429223D01*
X737586Y429586D01*
X737777Y429977D01*
X737926Y430397D01*
X738033Y430845D01*
X738096Y431322D01*
X738118Y431827D01*
X738097Y432345D01*
X738035Y432833D01*
X737932Y433290D01*
X737788Y433715D01*
X737603Y434110D01*
X737376Y434473D01*
X737108Y434805D01*
X736799Y435107D01*
X736453Y435375D01*
X736072Y435607D01*
X735658Y435803D01*
X735209Y435964D01*
X734726Y436089D01*
X734209Y436178D01*
X733658Y436232D01*
X733073Y436250D01*
X732512Y436232D01*
X731983Y436178D01*
X731484Y436088D01*
X731017Y435962D01*
X730580Y435800D01*
X730174Y435602D01*
X729799Y435368D01*
X729455Y435098D01*
X729148Y434795D01*
X728881Y434463D01*
X728655Y434100D01*
X728470Y433709D01*
X728326Y433287D01*
X728224Y432836D01*
X728162Y432355D01*
X728142Y431844D01*
X728162Y431329D01*
X728223Y430844D01*
X728324Y430390D01*
X728466Y429965D01*
X728648Y429571D01*
X728871Y429207D01*
X729134Y428872D01*
X729438Y428568D01*
X729778Y428297D01*
X730151Y428063D01*
X730557Y427864D01*
X730995Y427701D01*
X731465Y427575D01*
X731969Y427484D01*
X732504Y427430D01*
X733073Y427412D01*
G37*
%LPD*%
G36*
X739300Y408429D02*
X726959Y408429D01*
X726959Y412510D01*
X726965Y412897D01*
X726984Y413272D01*
X727015Y413636D01*
X727058Y413988D01*
X727113Y414330D01*
X727180Y414660D01*
X727260Y414980D01*
X727352Y415288D01*
X727457Y415585D01*
X727573Y415870D01*
X727702Y416145D01*
X727844Y416408D01*
X727997Y416660D01*
X728163Y416901D01*
X728341Y417131D01*
X728531Y417349D01*
X728733Y417556D01*
X728945Y417749D01*
X729168Y417928D01*
X729400Y418095D01*
X729644Y418248D01*
X729897Y418387D01*
X730161Y418514D01*
X730435Y418627D01*
X730720Y418727D01*
X731015Y418813D01*
X731320Y418886D01*
X731636Y418946D01*
X731962Y418993D01*
X732299Y419026D01*
X732645Y419046D01*
X733003Y419053D01*
X733473Y419041D01*
X733927Y419006D01*
X734368Y418948D01*
X734793Y418867D01*
X735203Y418762D01*
X735598Y418634D01*
X735979Y418483D01*
X736344Y418308D01*
X736692Y418112D01*
X737018Y417897D01*
X737324Y417663D01*
X737609Y417408D01*
X737872Y417135D01*
X738115Y416842D01*
X738337Y416529D01*
X738538Y416198D01*
X738717Y415849D01*
X738871Y415488D01*
X739002Y415114D01*
X739110Y414726D01*
X739193Y414325D01*
X739252Y413912D01*
X739288Y413485D01*
X739300Y413044D01*
X739300Y408429D01*
G37*
%LPC*%
G36*
X737960Y410102D02*
X737960Y412852D01*
X737951Y413186D01*
X737923Y413510D01*
X737876Y413824D01*
X737811Y414127D01*
X737727Y414420D01*
X737625Y414703D01*
X737504Y414976D01*
X737364Y415238D01*
X737207Y415488D01*
X737034Y415723D01*
X736844Y415943D01*
X736637Y416148D01*
X736415Y416338D01*
X736175Y416514D01*
X735920Y416674D01*
X735648Y416819D01*
X735361Y416949D01*
X735062Y417061D01*
X734750Y417156D01*
X734426Y417233D01*
X734089Y417294D01*
X733739Y417337D01*
X733377Y417363D01*
X733003Y417371D01*
X732446Y417352D01*
X731923Y417293D01*
X731435Y417194D01*
X730981Y417057D01*
X730560Y416880D01*
X730174Y416664D01*
X729822Y416409D01*
X729504Y416114D01*
X729221Y415783D01*
X728977Y415416D01*
X728770Y415013D01*
X728600Y414576D01*
X728469Y414104D01*
X728375Y413596D01*
X728318Y413053D01*
X728299Y412475D01*
X728299Y410102D01*
X737960Y410102D01*
G37*
%LPD*%
G36*
X739300Y440304D02*
X726959Y440304D01*
X726959Y444385D01*
X726965Y444772D01*
X726984Y445147D01*
X727015Y445511D01*
X727058Y445863D01*
X727113Y446205D01*
X727180Y446535D01*
X727260Y446855D01*
X727352Y447163D01*
X727457Y447460D01*
X727573Y447745D01*
X727702Y448020D01*
X727844Y448283D01*
X727997Y448535D01*
X728163Y448776D01*
X728341Y449006D01*
X728531Y449224D01*
X728733Y449431D01*
X728945Y449624D01*
X729168Y449803D01*
X729400Y449970D01*
X729644Y450123D01*
X729897Y450262D01*
X730161Y450389D01*
X730435Y450502D01*
X730720Y450602D01*
X731015Y450688D01*
X731320Y450761D01*
X731636Y450821D01*
X731962Y450868D01*
X732299Y450901D01*
X732645Y450921D01*
X733003Y450928D01*
X733473Y450916D01*
X733927Y450881D01*
X734368Y450823D01*
X734793Y450742D01*
X735203Y450637D01*
X735598Y450509D01*
X735979Y450358D01*
X736344Y450183D01*
X736692Y449987D01*
X737018Y449772D01*
X737324Y449538D01*
X737609Y449283D01*
X737872Y449010D01*
X738115Y448717D01*
X738337Y448404D01*
X738538Y448073D01*
X738717Y447724D01*
X738871Y447363D01*
X739002Y446989D01*
X739110Y446601D01*
X739193Y446200D01*
X739252Y445787D01*
X739288Y445360D01*
X739300Y444919D01*
X739300Y440304D01*
G37*
%LPC*%
G36*
X737960Y441977D02*
X737960Y444727D01*
X737951Y445061D01*
X737923Y445385D01*
X737876Y445699D01*
X737811Y446002D01*
X737727Y446295D01*
X737625Y446578D01*
X737504Y446851D01*
X737364Y447113D01*
X737207Y447363D01*
X737034Y447598D01*
X736844Y447818D01*
X736637Y448023D01*
X736415Y448213D01*
X736175Y448389D01*
X735920Y448549D01*
X735648Y448694D01*
X735361Y448824D01*
X735062Y448936D01*
X734750Y449031D01*
X734426Y449108D01*
X734089Y449169D01*
X733739Y449212D01*
X733377Y449238D01*
X733003Y449246D01*
X732446Y449227D01*
X731923Y449168D01*
X731435Y449069D01*
X730981Y448932D01*
X730560Y448755D01*
X730174Y448539D01*
X729822Y448284D01*
X729504Y447989D01*
X729221Y447658D01*
X728977Y447291D01*
X728770Y446888D01*
X728600Y446451D01*
X728469Y445979D01*
X728375Y445471D01*
X728318Y444928D01*
X728299Y444350D01*
X728299Y441977D01*
X737960Y441977D01*
G37*
%LPD*%
G36*
X739300Y421550D02*
X726959Y421550D01*
X726959Y423223D01*
X739300Y423223D01*
X739300Y421550D01*
G37*
G36*
X748323Y326478D02*
X746746Y326478D01*
X746746Y337741D01*
X746733Y338956D01*
X746717Y339378D01*
X746694Y339677D01*
X748218Y339677D01*
X748244Y339427D01*
X748283Y338766D01*
X748305Y338153D01*
X748340Y338153D01*
X748567Y338561D01*
X748829Y338911D01*
X749124Y339203D01*
X749284Y339327D01*
X749453Y339436D01*
X749632Y339531D01*
X749826Y339614D01*
X750033Y339684D01*
X750254Y339741D01*
X750489Y339786D01*
X750737Y339818D01*
X750999Y339837D01*
X751274Y339843D01*
X751698Y339825D01*
X752095Y339770D01*
X752464Y339678D01*
X752805Y339550D01*
X753118Y339385D01*
X753404Y339183D01*
X753663Y338945D01*
X753893Y338670D01*
X754096Y338355D01*
X754273Y337999D01*
X754422Y337601D01*
X754543Y337161D01*
X754638Y336679D01*
X754706Y336155D01*
X754747Y335590D01*
X754760Y334982D01*
X754747Y334382D01*
X754706Y333820D01*
X754638Y333297D01*
X754542Y332813D01*
X754420Y332368D01*
X754270Y331961D01*
X754093Y331593D01*
X753889Y331264D01*
X753657Y330974D01*
X753399Y330722D01*
X753113Y330509D01*
X752799Y330335D01*
X752459Y330199D01*
X752091Y330102D01*
X751696Y330044D01*
X751274Y330025D01*
X751006Y330031D01*
X750749Y330051D01*
X750504Y330083D01*
X750269Y330128D01*
X750046Y330186D01*
X749834Y330256D01*
X749633Y330340D01*
X749444Y330436D01*
X749265Y330546D01*
X749098Y330668D01*
X748943Y330803D01*
X748798Y330951D01*
X748664Y331112D01*
X748542Y331286D01*
X748431Y331472D01*
X748331Y331671D01*
X748288Y331671D01*
X748303Y331552D01*
X748314Y331264D01*
X748323Y330183D01*
X748323Y326478D01*
G37*
%LPC*%
G36*
X750854Y331190D02*
X751137Y331203D01*
X751401Y331244D01*
X751645Y331311D01*
X751869Y331405D01*
X752073Y331527D01*
X752257Y331675D01*
X752422Y331850D01*
X752566Y332052D01*
X752692Y332286D01*
X752802Y332557D01*
X752894Y332864D01*
X752970Y333207D01*
X753029Y333588D01*
X753071Y334004D01*
X753096Y334457D01*
X753105Y334947D01*
X753097Y335424D01*
X753071Y335866D01*
X753030Y336273D01*
X752971Y336644D01*
X752896Y336980D01*
X752804Y337281D01*
X752696Y337546D01*
X752571Y337776D01*
X752427Y337975D01*
X752264Y338148D01*
X752081Y338294D01*
X751879Y338413D01*
X751656Y338506D01*
X751414Y338573D01*
X751153Y338612D01*
X750871Y338626D01*
X750644Y338620D01*
X750428Y338601D01*
X750226Y338570D01*
X750036Y338527D01*
X749859Y338472D01*
X749695Y338404D01*
X749543Y338324D01*
X749404Y338232D01*
X749155Y338007D01*
X748938Y337727D01*
X748752Y337392D01*
X748599Y337001D01*
X748478Y336551D01*
X748392Y336039D01*
X748340Y335463D01*
X748323Y334825D01*
X748332Y334373D01*
X748360Y333953D01*
X748406Y333563D01*
X748472Y333204D01*
X748555Y332876D01*
X748658Y332578D01*
X748779Y332311D01*
X748918Y332074D01*
X749079Y331867D01*
X749263Y331687D01*
X749470Y331535D01*
X749700Y331411D01*
X749954Y331314D01*
X750230Y331245D01*
X750531Y331204D01*
X750854Y331190D01*
G37*
%LPD*%
G36*
X739195Y330025D02*
X738849Y330037D01*
X738525Y330072D01*
X738224Y330131D01*
X737945Y330213D01*
X737687Y330319D01*
X737452Y330449D01*
X737240Y330602D01*
X737049Y330778D01*
X736881Y330975D01*
X736735Y331190D01*
X736611Y331422D01*
X736510Y331671D01*
X736432Y331939D01*
X736376Y332223D01*
X736342Y332525D01*
X736331Y332845D01*
X736346Y333202D01*
X736391Y333538D01*
X736467Y333853D01*
X736573Y334146D01*
X736709Y334418D01*
X736875Y334668D01*
X737072Y334897D01*
X737299Y335105D01*
X737559Y335290D01*
X737857Y335453D01*
X738191Y335593D01*
X738563Y335709D01*
X738972Y335803D01*
X739418Y335873D01*
X739901Y335921D01*
X740421Y335946D01*
X742549Y335981D01*
X742549Y336497D01*
X742542Y336776D01*
X742519Y337034D01*
X742480Y337272D01*
X742427Y337489D01*
X742358Y337686D01*
X742273Y337862D01*
X742174Y338018D01*
X742059Y338153D01*
X741927Y338270D01*
X741779Y338371D01*
X741612Y338457D01*
X741428Y338527D01*
X741227Y338582D01*
X741008Y338621D01*
X740771Y338644D01*
X740517Y338652D01*
X740024Y338630D01*
X739804Y338601D01*
X739602Y338562D01*
X739418Y338512D01*
X739253Y338450D01*
X739105Y338377D01*
X738976Y338293D01*
X738861Y338196D01*
X738759Y338087D01*
X738669Y337963D01*
X738590Y337827D01*
X738524Y337676D01*
X738470Y337513D01*
X738428Y337336D01*
X738398Y337146D01*
X736751Y337294D01*
X736813Y337604D01*
X736899Y337894D01*
X737008Y338164D01*
X737140Y338413D01*
X737295Y338643D01*
X737475Y338853D01*
X737677Y339043D01*
X737903Y339213D01*
X738152Y339362D01*
X738425Y339492D01*
X738721Y339602D01*
X739040Y339692D01*
X739383Y339762D01*
X739750Y339812D01*
X740139Y339842D01*
X740552Y339852D01*
X740985Y339839D01*
X741390Y339801D01*
X741768Y339737D01*
X742118Y339647D01*
X742440Y339532D01*
X742735Y339391D01*
X743002Y339225D01*
X743241Y339033D01*
X743453Y338817D01*
X743636Y338578D01*
X743791Y338316D01*
X743918Y338031D01*
X744017Y337724D01*
X744087Y337393D01*
X744129Y337040D01*
X744143Y336664D01*
X744143Y332582D01*
X744155Y332254D01*
X744189Y331968D01*
X744247Y331726D01*
X744327Y331527D01*
X744440Y331372D01*
X744594Y331261D01*
X744790Y331194D01*
X745028Y331172D01*
X745271Y331188D01*
X745545Y331234D01*
X745545Y330253D01*
X745245Y330191D01*
X744943Y330147D01*
X744637Y330121D01*
X744327Y330112D01*
X744116Y330120D01*
X743919Y330141D01*
X743738Y330177D01*
X743571Y330227D01*
X743419Y330292D01*
X743282Y330371D01*
X743160Y330464D01*
X743053Y330572D01*
X742959Y330695D01*
X742875Y330835D01*
X742803Y330990D01*
X742741Y331162D01*
X742690Y331351D01*
X742650Y331555D01*
X742602Y332013D01*
X742549Y332013D01*
X742235Y331510D01*
X742068Y331288D01*
X741896Y331086D01*
X741717Y330903D01*
X741532Y330741D01*
X741341Y330599D01*
X741144Y330476D01*
X740938Y330370D01*
X740721Y330279D01*
X740494Y330201D01*
X740256Y330138D01*
X740007Y330088D01*
X739747Y330053D01*
X739476Y330032D01*
X739195Y330025D01*
G37*
%LPC*%
G36*
X739554Y331207D02*
X739768Y331213D01*
X739975Y331232D01*
X740373Y331306D01*
X740746Y331429D01*
X741095Y331601D01*
X741415Y331817D01*
X741699Y332069D01*
X741947Y332358D01*
X742160Y332683D01*
X742330Y333029D01*
X742452Y333380D01*
X742525Y333737D01*
X742549Y334098D01*
X742549Y334877D01*
X740824Y334842D01*
X740301Y334821D01*
X739846Y334776D01*
X739458Y334707D01*
X739138Y334614D01*
X738868Y334495D01*
X738631Y334347D01*
X738428Y334171D01*
X738258Y333966D01*
X738124Y333730D01*
X738028Y333460D01*
X737970Y333157D01*
X737951Y332819D01*
X737958Y332632D01*
X737977Y332455D01*
X738010Y332290D01*
X738055Y332136D01*
X738114Y331992D01*
X738185Y331860D01*
X738270Y331738D01*
X738367Y331628D01*
X738477Y331529D01*
X738597Y331444D01*
X738729Y331371D01*
X738872Y331312D01*
X739026Y331266D01*
X739191Y331234D01*
X739367Y331214D01*
X739554Y331207D01*
G37*
%LPD*%
G36*
X731443Y330025D02*
X730961Y330044D01*
X730508Y330103D01*
X730085Y330202D01*
X729691Y330339D01*
X729326Y330516D01*
X728991Y330732D01*
X728685Y330987D01*
X728409Y331282D01*
X728163Y331614D01*
X727951Y331982D01*
X727771Y332386D01*
X727624Y332826D01*
X727509Y333303D01*
X727427Y333815D01*
X727378Y334363D01*
X727362Y334947D01*
X727378Y335527D01*
X727428Y336072D01*
X727510Y336581D01*
X727625Y337055D01*
X727773Y337493D01*
X727953Y337896D01*
X728167Y338263D01*
X728413Y338595D01*
X728690Y338890D01*
X728995Y339145D01*
X729329Y339361D01*
X729692Y339538D01*
X730083Y339675D01*
X730502Y339773D01*
X730950Y339832D01*
X731426Y339852D01*
X731782Y339840D01*
X732122Y339805D01*
X732447Y339746D01*
X732756Y339664D01*
X733050Y339558D01*
X733328Y339428D01*
X733591Y339275D01*
X733839Y339099D01*
X734068Y338901D01*
X734274Y338686D01*
X734458Y338454D01*
X734620Y338203D01*
X734759Y337935D01*
X734876Y337649D01*
X734971Y337345D01*
X735043Y337023D01*
X733423Y336900D01*
X733338Y337274D01*
X733206Y337608D01*
X733027Y337900D01*
X732801Y338153D01*
X732670Y338262D01*
X732525Y338356D01*
X732368Y338436D01*
X732197Y338501D01*
X732013Y338552D01*
X731816Y338588D01*
X731606Y338610D01*
X731382Y338617D01*
X731080Y338604D01*
X730799Y338565D01*
X730540Y338500D01*
X730303Y338409D01*
X730087Y338292D01*
X729893Y338149D01*
X729720Y337980D01*
X729569Y337785D01*
X729438Y337559D01*
X729324Y337298D01*
X729228Y337001D01*
X729149Y336668D01*
X729087Y336300D01*
X729044Y335896D01*
X729017Y335457D01*
X729009Y334982D01*
X729018Y334525D01*
X729046Y334098D01*
X729092Y333701D01*
X729157Y333336D01*
X729241Y333001D01*
X729344Y332696D01*
X729465Y332422D01*
X729604Y332179D01*
X729763Y331966D01*
X729940Y331781D01*
X730136Y331624D01*
X730351Y331496D01*
X730585Y331397D01*
X730837Y331325D01*
X731109Y331283D01*
X731400Y331269D01*
X731606Y331276D01*
X731803Y331297D01*
X731992Y331333D01*
X732172Y331382D01*
X732343Y331446D01*
X732506Y331525D01*
X732660Y331617D01*
X732805Y331724D01*
X732940Y331846D01*
X733061Y331982D01*
X733168Y332135D01*
X733262Y332302D01*
X733342Y332485D01*
X733409Y332683D01*
X733462Y332897D01*
X733502Y333125D01*
X735096Y333020D01*
X735037Y332687D01*
X734954Y332372D01*
X734846Y332073D01*
X734713Y331792D01*
X734555Y331528D01*
X734372Y331281D01*
X734164Y331052D01*
X733931Y330839D01*
X733677Y330648D01*
X733408Y330483D01*
X733121Y330343D01*
X732819Y330228D01*
X732499Y330139D01*
X732164Y330076D01*
X731812Y330038D01*
X731443Y330025D01*
G37*
D10*
X521600Y364900D02*
X697600Y364900D01*
X697600Y574900D01*
X521600Y574900D01*
X521600Y364900D01*
X561600Y589100D02*
X657600Y589100D01*
X657600Y515580D01*
X561600Y515580D01*
X561600Y589100D01*
D11*
X573123Y494834D02*
X573121Y494744D01*
X573115Y494655D01*
X573105Y494566D01*
X573092Y494478D01*
X573074Y494390D01*
X573053Y494303D01*
X573028Y494217D01*
X572999Y494132D01*
X572967Y494048D01*
X572931Y493966D01*
X572891Y493886D01*
X572848Y493808D01*
X572801Y493731D01*
X572752Y493656D01*
X572699Y493584D01*
X572643Y493514D01*
X572584Y493447D01*
X572522Y493382D01*
X572457Y493320D01*
X572390Y493261D01*
X572320Y493205D01*
X572248Y493152D01*
X572173Y493103D01*
X572097Y493056D01*
X572018Y493013D01*
X571938Y492973D01*
X571856Y492937D01*
X571772Y492905D01*
X571687Y492876D01*
X571601Y492851D01*
X571514Y492830D01*
X571426Y492812D01*
X571338Y492799D01*
X571249Y492789D01*
X571160Y492783D01*
X571070Y492781D01*
X570943Y492783D01*
X570816Y492788D01*
X570690Y492798D01*
X570564Y492811D01*
X570438Y492827D01*
X570313Y492848D01*
X570188Y492872D01*
X570065Y492899D01*
X569942Y492930D01*
X569820Y492965D01*
X569699Y493003D01*
X569579Y493045D01*
X569461Y493091D01*
X569344Y493139D01*
X569228Y493192D01*
X569114Y493247D01*
X569002Y493306D01*
X568891Y493368D01*
X568782Y493433D01*
X568676Y493502D01*
X568571Y493573D01*
X568468Y493648D01*
X568368Y493726D01*
X568270Y493806D01*
X568174Y493889D01*
X568081Y493975D01*
X567990Y494064D01*
X568247Y499966D02*
X568249Y500056D01*
X568255Y500145D01*
X568265Y500234D01*
X568278Y500323D01*
X568296Y500410D01*
X568317Y500497D01*
X568342Y500583D01*
X568371Y500668D01*
X568403Y500752D01*
X568439Y500834D01*
X568479Y500914D01*
X568522Y500993D01*
X568569Y501069D01*
X568618Y501144D01*
X568671Y501216D01*
X568727Y501286D01*
X568786Y501353D01*
X568848Y501418D01*
X568913Y501480D01*
X568980Y501539D01*
X569050Y501595D01*
X569122Y501648D01*
X569197Y501697D01*
X569274Y501744D01*
X569352Y501787D01*
X569432Y501827D01*
X569514Y501863D01*
X569598Y501895D01*
X569683Y501924D01*
X569769Y501949D01*
X569856Y501970D01*
X569944Y501988D01*
X570032Y502001D01*
X570121Y502011D01*
X570210Y502017D01*
X570300Y502019D01*
X570424Y502017D01*
X570548Y502011D01*
X570671Y502001D01*
X570794Y501987D01*
X570917Y501969D01*
X571038Y501947D01*
X571160Y501922D01*
X571280Y501892D01*
X571399Y501859D01*
X571517Y501821D01*
X571634Y501780D01*
X571749Y501736D01*
X571863Y501687D01*
X571976Y501635D01*
X572086Y501579D01*
X572195Y501520D01*
X572302Y501457D01*
X572407Y501391D01*
X572509Y501322D01*
X572609Y501249D01*
X569273Y498170D02*
X569197Y498217D01*
X569122Y498268D01*
X569050Y498322D01*
X568980Y498379D01*
X568913Y498439D01*
X568848Y498502D01*
X568786Y498567D01*
X568727Y498635D01*
X568671Y498706D01*
X568618Y498779D01*
X568568Y498854D01*
X568522Y498932D01*
X568479Y499011D01*
X568439Y499092D01*
X568403Y499175D01*
X568371Y499259D01*
X568342Y499344D01*
X568317Y499431D01*
X568296Y499519D01*
X568278Y499607D01*
X568265Y499696D01*
X568255Y499786D01*
X568249Y499876D01*
X568247Y499966D01*
X572096Y496630D02*
X572173Y496583D01*
X572248Y496532D01*
X572320Y496478D01*
X572390Y496421D01*
X572457Y496361D01*
X572522Y496298D01*
X572584Y496233D01*
X572643Y496165D01*
X572699Y496094D01*
X572752Y496021D01*
X572802Y495946D01*
X572848Y495868D01*
X572891Y495789D01*
X572931Y495708D01*
X572967Y495625D01*
X572999Y495541D01*
X573028Y495456D01*
X573053Y495369D01*
X573074Y495282D01*
X573092Y495193D01*
X573105Y495104D01*
X573115Y495014D01*
X573121Y494924D01*
X573123Y494834D01*
X572096Y496630D02*
X569274Y498170D01*
X578143Y492781D02*
X580710Y492781D01*
X578143Y492781D02*
X578067Y492783D01*
X577992Y492788D01*
X577917Y492798D01*
X577843Y492811D01*
X577769Y492827D01*
X577696Y492847D01*
X577624Y492871D01*
X577554Y492898D01*
X577485Y492929D01*
X577417Y492963D01*
X577351Y493000D01*
X577287Y493041D01*
X577226Y493084D01*
X577166Y493131D01*
X577109Y493180D01*
X577054Y493232D01*
X577002Y493287D01*
X576953Y493344D01*
X576906Y493404D01*
X576863Y493465D01*
X576822Y493529D01*
X576785Y493595D01*
X576751Y493663D01*
X576720Y493732D01*
X576693Y493802D01*
X576669Y493874D01*
X576649Y493947D01*
X576633Y494021D01*
X576620Y494095D01*
X576610Y494170D01*
X576605Y494245D01*
X576603Y494321D01*
X576604Y494321D02*
X576604Y496887D01*
X576606Y496977D01*
X576612Y497066D01*
X576622Y497155D01*
X576635Y497243D01*
X576653Y497331D01*
X576674Y497418D01*
X576699Y497504D01*
X576728Y497589D01*
X576760Y497673D01*
X576796Y497755D01*
X576836Y497835D01*
X576879Y497914D01*
X576926Y497990D01*
X576975Y498065D01*
X577028Y498137D01*
X577084Y498207D01*
X577143Y498274D01*
X577205Y498339D01*
X577270Y498401D01*
X577337Y498460D01*
X577407Y498516D01*
X577479Y498569D01*
X577554Y498618D01*
X577631Y498665D01*
X577709Y498708D01*
X577789Y498748D01*
X577871Y498784D01*
X577955Y498816D01*
X578040Y498845D01*
X578126Y498870D01*
X578213Y498891D01*
X578301Y498909D01*
X578389Y498922D01*
X578478Y498932D01*
X578567Y498938D01*
X578657Y498940D01*
X578747Y498938D01*
X578836Y498932D01*
X578925Y498922D01*
X579013Y498909D01*
X579101Y498891D01*
X579188Y498870D01*
X579274Y498845D01*
X579359Y498816D01*
X579443Y498784D01*
X579525Y498748D01*
X579605Y498708D01*
X579684Y498665D01*
X579760Y498618D01*
X579835Y498569D01*
X579907Y498516D01*
X579977Y498460D01*
X580044Y498401D01*
X580109Y498339D01*
X580171Y498274D01*
X580230Y498207D01*
X580286Y498137D01*
X580339Y498065D01*
X580388Y497990D01*
X580435Y497914D01*
X580478Y497835D01*
X580518Y497755D01*
X580554Y497673D01*
X580586Y497589D01*
X580615Y497504D01*
X580640Y497418D01*
X580661Y497331D01*
X580679Y497243D01*
X580692Y497155D01*
X580702Y497066D01*
X580708Y496977D01*
X580710Y496887D01*
X580710Y495860D01*
X576604Y495860D01*
X585943Y492781D02*
X588510Y492781D01*
X585943Y492781D02*
X585867Y492783D01*
X585792Y492788D01*
X585717Y492798D01*
X585643Y492811D01*
X585569Y492827D01*
X585496Y492847D01*
X585424Y492871D01*
X585354Y492898D01*
X585285Y492929D01*
X585217Y492963D01*
X585151Y493000D01*
X585087Y493041D01*
X585026Y493084D01*
X584966Y493131D01*
X584909Y493180D01*
X584854Y493232D01*
X584802Y493287D01*
X584753Y493344D01*
X584706Y493404D01*
X584663Y493465D01*
X584622Y493529D01*
X584585Y493595D01*
X584551Y493663D01*
X584520Y493732D01*
X584493Y493802D01*
X584469Y493874D01*
X584449Y493947D01*
X584433Y494021D01*
X584420Y494095D01*
X584410Y494170D01*
X584405Y494245D01*
X584403Y494321D01*
X584404Y494321D02*
X584404Y496887D01*
X584406Y496977D01*
X584412Y497066D01*
X584422Y497155D01*
X584435Y497243D01*
X584453Y497331D01*
X584474Y497418D01*
X584499Y497504D01*
X584528Y497589D01*
X584560Y497673D01*
X584596Y497755D01*
X584636Y497835D01*
X584679Y497914D01*
X584726Y497990D01*
X584775Y498065D01*
X584828Y498137D01*
X584884Y498207D01*
X584943Y498274D01*
X585005Y498339D01*
X585070Y498401D01*
X585137Y498460D01*
X585207Y498516D01*
X585279Y498569D01*
X585354Y498618D01*
X585431Y498665D01*
X585509Y498708D01*
X585589Y498748D01*
X585671Y498784D01*
X585755Y498816D01*
X585840Y498845D01*
X585926Y498870D01*
X586013Y498891D01*
X586101Y498909D01*
X586189Y498922D01*
X586278Y498932D01*
X586367Y498938D01*
X586457Y498940D01*
X586547Y498938D01*
X586636Y498932D01*
X586725Y498922D01*
X586813Y498909D01*
X586901Y498891D01*
X586988Y498870D01*
X587074Y498845D01*
X587159Y498816D01*
X587243Y498784D01*
X587325Y498748D01*
X587405Y498708D01*
X587484Y498665D01*
X587560Y498618D01*
X587635Y498569D01*
X587707Y498516D01*
X587777Y498460D01*
X587844Y498401D01*
X587909Y498339D01*
X587971Y498274D01*
X588030Y498207D01*
X588086Y498137D01*
X588139Y498065D01*
X588188Y497990D01*
X588235Y497914D01*
X588278Y497835D01*
X588318Y497755D01*
X588354Y497673D01*
X588386Y497589D01*
X588415Y497504D01*
X588440Y497418D01*
X588461Y497331D01*
X588479Y497243D01*
X588492Y497155D01*
X588502Y497066D01*
X588508Y496977D01*
X588510Y496887D01*
X588510Y495860D01*
X584404Y495860D01*
X593743Y492781D02*
X596310Y492781D01*
X593743Y492781D02*
X593667Y492783D01*
X593592Y492788D01*
X593517Y492798D01*
X593443Y492811D01*
X593369Y492827D01*
X593296Y492847D01*
X593224Y492871D01*
X593154Y492898D01*
X593085Y492929D01*
X593017Y492963D01*
X592951Y493000D01*
X592887Y493041D01*
X592826Y493084D01*
X592766Y493131D01*
X592709Y493180D01*
X592654Y493232D01*
X592602Y493287D01*
X592553Y493344D01*
X592506Y493404D01*
X592463Y493465D01*
X592422Y493529D01*
X592385Y493595D01*
X592351Y493663D01*
X592320Y493732D01*
X592293Y493802D01*
X592269Y493874D01*
X592249Y493947D01*
X592233Y494021D01*
X592220Y494095D01*
X592210Y494170D01*
X592205Y494245D01*
X592203Y494321D01*
X592204Y494321D02*
X592204Y496887D01*
X592206Y496977D01*
X592212Y497066D01*
X592222Y497155D01*
X592235Y497243D01*
X592253Y497331D01*
X592274Y497418D01*
X592299Y497504D01*
X592328Y497589D01*
X592360Y497673D01*
X592396Y497755D01*
X592436Y497835D01*
X592479Y497914D01*
X592526Y497990D01*
X592575Y498065D01*
X592628Y498137D01*
X592684Y498207D01*
X592743Y498274D01*
X592805Y498339D01*
X592870Y498401D01*
X592937Y498460D01*
X593007Y498516D01*
X593079Y498569D01*
X593154Y498618D01*
X593231Y498665D01*
X593309Y498708D01*
X593389Y498748D01*
X593471Y498784D01*
X593555Y498816D01*
X593640Y498845D01*
X593726Y498870D01*
X593813Y498891D01*
X593901Y498909D01*
X593989Y498922D01*
X594078Y498932D01*
X594167Y498938D01*
X594257Y498940D01*
X594347Y498938D01*
X594436Y498932D01*
X594525Y498922D01*
X594613Y498909D01*
X594701Y498891D01*
X594788Y498870D01*
X594874Y498845D01*
X594959Y498816D01*
X595043Y498784D01*
X595125Y498748D01*
X595205Y498708D01*
X595284Y498665D01*
X595360Y498618D01*
X595435Y498569D01*
X595507Y498516D01*
X595577Y498460D01*
X595644Y498401D01*
X595709Y498339D01*
X595771Y498274D01*
X595830Y498207D01*
X595886Y498137D01*
X595939Y498065D01*
X595988Y497990D01*
X596035Y497914D01*
X596078Y497835D01*
X596118Y497755D01*
X596154Y497673D01*
X596186Y497589D01*
X596215Y497504D01*
X596240Y497418D01*
X596261Y497331D01*
X596279Y497243D01*
X596292Y497155D01*
X596302Y497066D01*
X596308Y496977D01*
X596310Y496887D01*
X596310Y495860D01*
X592204Y495860D01*
X604064Y492781D02*
X604064Y502019D01*
X604064Y492781D02*
X601498Y492781D01*
X601422Y492783D01*
X601347Y492788D01*
X601272Y492798D01*
X601198Y492811D01*
X601124Y492827D01*
X601051Y492847D01*
X600979Y492871D01*
X600909Y492898D01*
X600840Y492929D01*
X600772Y492963D01*
X600706Y493000D01*
X600642Y493041D01*
X600581Y493084D01*
X600521Y493131D01*
X600464Y493180D01*
X600409Y493232D01*
X600357Y493287D01*
X600308Y493344D01*
X600261Y493404D01*
X600218Y493465D01*
X600177Y493529D01*
X600140Y493595D01*
X600106Y493663D01*
X600075Y493732D01*
X600048Y493802D01*
X600024Y493874D01*
X600004Y493947D01*
X599988Y494021D01*
X599975Y494095D01*
X599965Y494170D01*
X599960Y494245D01*
X599958Y494321D01*
X599959Y494321D02*
X599959Y497400D01*
X599958Y497400D02*
X599960Y497476D01*
X599965Y497551D01*
X599975Y497626D01*
X599988Y497700D01*
X600004Y497774D01*
X600024Y497847D01*
X600048Y497919D01*
X600075Y497989D01*
X600106Y498058D01*
X600140Y498126D01*
X600177Y498192D01*
X600218Y498256D01*
X600261Y498317D01*
X600308Y498377D01*
X600357Y498434D01*
X600409Y498489D01*
X600464Y498541D01*
X600521Y498590D01*
X600581Y498637D01*
X600642Y498680D01*
X600706Y498721D01*
X600772Y498758D01*
X600840Y498792D01*
X600909Y498823D01*
X600979Y498850D01*
X601051Y498874D01*
X601124Y498894D01*
X601198Y498910D01*
X601272Y498923D01*
X601347Y498933D01*
X601422Y498938D01*
X601498Y498940D01*
X604064Y498940D01*
X615770Y492781D02*
X615860Y492783D01*
X615949Y492789D01*
X616038Y492799D01*
X616126Y492812D01*
X616214Y492830D01*
X616301Y492851D01*
X616387Y492876D01*
X616472Y492905D01*
X616556Y492937D01*
X616638Y492973D01*
X616718Y493013D01*
X616797Y493056D01*
X616873Y493103D01*
X616948Y493152D01*
X617020Y493205D01*
X617090Y493261D01*
X617157Y493320D01*
X617222Y493382D01*
X617284Y493447D01*
X617343Y493514D01*
X617399Y493584D01*
X617452Y493656D01*
X617501Y493731D01*
X617548Y493808D01*
X617591Y493886D01*
X617631Y493966D01*
X617667Y494048D01*
X617699Y494132D01*
X617728Y494217D01*
X617753Y494303D01*
X617774Y494390D01*
X617792Y494478D01*
X617805Y494566D01*
X617815Y494655D01*
X617821Y494744D01*
X617823Y494834D01*
X615770Y492781D02*
X615643Y492783D01*
X615516Y492788D01*
X615390Y492798D01*
X615264Y492811D01*
X615138Y492827D01*
X615013Y492848D01*
X614888Y492872D01*
X614765Y492899D01*
X614642Y492930D01*
X614520Y492965D01*
X614399Y493003D01*
X614279Y493045D01*
X614161Y493091D01*
X614044Y493139D01*
X613928Y493192D01*
X613814Y493247D01*
X613702Y493306D01*
X613591Y493368D01*
X613482Y493433D01*
X613376Y493502D01*
X613271Y493573D01*
X613168Y493648D01*
X613068Y493726D01*
X612970Y493806D01*
X612874Y493889D01*
X612781Y493975D01*
X612690Y494064D01*
X612947Y499966D02*
X612949Y500056D01*
X612955Y500145D01*
X612965Y500234D01*
X612978Y500323D01*
X612996Y500410D01*
X613017Y500497D01*
X613042Y500583D01*
X613071Y500668D01*
X613103Y500752D01*
X613139Y500834D01*
X613179Y500914D01*
X613222Y500993D01*
X613269Y501069D01*
X613318Y501144D01*
X613371Y501216D01*
X613427Y501286D01*
X613486Y501353D01*
X613548Y501418D01*
X613613Y501480D01*
X613680Y501539D01*
X613750Y501595D01*
X613822Y501648D01*
X613897Y501697D01*
X613974Y501744D01*
X614052Y501787D01*
X614132Y501827D01*
X614214Y501863D01*
X614298Y501895D01*
X614383Y501924D01*
X614469Y501949D01*
X614556Y501970D01*
X614644Y501988D01*
X614732Y502001D01*
X614821Y502011D01*
X614910Y502017D01*
X615000Y502019D01*
X615124Y502017D01*
X615248Y502011D01*
X615371Y502001D01*
X615494Y501987D01*
X615617Y501969D01*
X615738Y501947D01*
X615860Y501922D01*
X615980Y501892D01*
X616099Y501859D01*
X616217Y501821D01*
X616334Y501780D01*
X616449Y501736D01*
X616563Y501687D01*
X616676Y501635D01*
X616786Y501579D01*
X616895Y501520D01*
X617002Y501457D01*
X617107Y501391D01*
X617209Y501322D01*
X617309Y501249D01*
X613973Y498170D02*
X613897Y498217D01*
X613822Y498268D01*
X613750Y498322D01*
X613680Y498379D01*
X613613Y498439D01*
X613548Y498502D01*
X613486Y498567D01*
X613427Y498635D01*
X613371Y498706D01*
X613318Y498779D01*
X613268Y498854D01*
X613222Y498932D01*
X613179Y499011D01*
X613139Y499092D01*
X613103Y499175D01*
X613071Y499259D01*
X613042Y499344D01*
X613017Y499431D01*
X612996Y499519D01*
X612978Y499607D01*
X612965Y499696D01*
X612955Y499786D01*
X612949Y499876D01*
X612947Y499966D01*
X616796Y496630D02*
X616873Y496583D01*
X616948Y496532D01*
X617020Y496478D01*
X617090Y496421D01*
X617157Y496361D01*
X617222Y496298D01*
X617284Y496233D01*
X617343Y496165D01*
X617399Y496094D01*
X617452Y496021D01*
X617502Y495946D01*
X617548Y495868D01*
X617591Y495789D01*
X617631Y495708D01*
X617667Y495625D01*
X617699Y495541D01*
X617728Y495456D01*
X617753Y495369D01*
X617774Y495282D01*
X617792Y495193D01*
X617805Y495104D01*
X617815Y495014D01*
X617821Y494924D01*
X617823Y494834D01*
X616796Y496630D02*
X613974Y498170D01*
X620546Y498940D02*
X623625Y498940D01*
X621572Y502019D02*
X621572Y494321D01*
X621574Y494245D01*
X621579Y494170D01*
X621589Y494095D01*
X621602Y494021D01*
X621618Y493947D01*
X621638Y493874D01*
X621662Y493802D01*
X621689Y493732D01*
X621720Y493663D01*
X621754Y493595D01*
X621791Y493529D01*
X621832Y493465D01*
X621875Y493404D01*
X621922Y493344D01*
X621971Y493287D01*
X622023Y493232D01*
X622078Y493180D01*
X622135Y493131D01*
X622195Y493084D01*
X622256Y493041D01*
X622320Y493000D01*
X622386Y492963D01*
X622454Y492929D01*
X622523Y492898D01*
X622593Y492871D01*
X622665Y492847D01*
X622738Y492827D01*
X622812Y492811D01*
X622886Y492798D01*
X622961Y492788D01*
X623036Y492783D01*
X623112Y492781D01*
X623625Y492781D01*
X627304Y494321D02*
X627304Y498940D01*
X627303Y494321D02*
X627305Y494245D01*
X627310Y494170D01*
X627320Y494095D01*
X627333Y494021D01*
X627349Y493947D01*
X627369Y493874D01*
X627393Y493802D01*
X627420Y493732D01*
X627451Y493663D01*
X627485Y493595D01*
X627522Y493529D01*
X627563Y493465D01*
X627606Y493404D01*
X627653Y493344D01*
X627702Y493287D01*
X627754Y493232D01*
X627809Y493180D01*
X627866Y493131D01*
X627926Y493084D01*
X627987Y493041D01*
X628051Y493000D01*
X628117Y492963D01*
X628185Y492929D01*
X628254Y492898D01*
X628324Y492871D01*
X628396Y492847D01*
X628469Y492827D01*
X628543Y492811D01*
X628617Y492798D01*
X628692Y492788D01*
X628767Y492783D01*
X628843Y492781D01*
X631409Y492781D01*
X631409Y498940D01*
X639464Y502019D02*
X639464Y492781D01*
X636898Y492781D01*
X636822Y492783D01*
X636747Y492788D01*
X636672Y492798D01*
X636598Y492811D01*
X636524Y492827D01*
X636451Y492847D01*
X636379Y492871D01*
X636309Y492898D01*
X636240Y492929D01*
X636172Y492963D01*
X636106Y493000D01*
X636042Y493041D01*
X635981Y493084D01*
X635921Y493131D01*
X635864Y493180D01*
X635809Y493232D01*
X635757Y493287D01*
X635708Y493344D01*
X635661Y493404D01*
X635618Y493465D01*
X635577Y493529D01*
X635540Y493595D01*
X635506Y493663D01*
X635475Y493732D01*
X635448Y493802D01*
X635424Y493874D01*
X635404Y493947D01*
X635388Y494021D01*
X635375Y494095D01*
X635365Y494170D01*
X635360Y494245D01*
X635358Y494321D01*
X635358Y497400D01*
X635360Y497476D01*
X635365Y497551D01*
X635375Y497626D01*
X635388Y497700D01*
X635404Y497774D01*
X635424Y497847D01*
X635448Y497919D01*
X635475Y497989D01*
X635506Y498058D01*
X635540Y498126D01*
X635577Y498192D01*
X635618Y498256D01*
X635661Y498317D01*
X635708Y498377D01*
X635757Y498434D01*
X635809Y498489D01*
X635864Y498541D01*
X635921Y498590D01*
X635981Y498637D01*
X636042Y498680D01*
X636106Y498721D01*
X636172Y498758D01*
X636240Y498792D01*
X636309Y498823D01*
X636379Y498850D01*
X636451Y498874D01*
X636524Y498894D01*
X636598Y498910D01*
X636672Y498923D01*
X636747Y498933D01*
X636822Y498938D01*
X636898Y498940D01*
X639464Y498940D01*
X643457Y498940D02*
X643457Y492781D01*
X643200Y501506D02*
X643200Y502019D01*
X643713Y502019D01*
X643713Y501506D01*
X643200Y501506D01*
X647104Y496887D02*
X647104Y494834D01*
X647104Y496887D02*
X647106Y496977D01*
X647112Y497066D01*
X647122Y497155D01*
X647135Y497243D01*
X647153Y497331D01*
X647174Y497418D01*
X647199Y497504D01*
X647228Y497589D01*
X647260Y497673D01*
X647296Y497755D01*
X647336Y497835D01*
X647379Y497914D01*
X647426Y497990D01*
X647475Y498065D01*
X647528Y498137D01*
X647584Y498207D01*
X647643Y498274D01*
X647705Y498339D01*
X647770Y498401D01*
X647837Y498460D01*
X647907Y498516D01*
X647979Y498569D01*
X648054Y498618D01*
X648131Y498665D01*
X648209Y498708D01*
X648289Y498748D01*
X648371Y498784D01*
X648455Y498816D01*
X648540Y498845D01*
X648626Y498870D01*
X648713Y498891D01*
X648801Y498909D01*
X648889Y498922D01*
X648978Y498932D01*
X649067Y498938D01*
X649157Y498940D01*
X649247Y498938D01*
X649336Y498932D01*
X649425Y498922D01*
X649513Y498909D01*
X649601Y498891D01*
X649688Y498870D01*
X649774Y498845D01*
X649859Y498816D01*
X649943Y498784D01*
X650025Y498748D01*
X650105Y498708D01*
X650184Y498665D01*
X650260Y498618D01*
X650335Y498569D01*
X650407Y498516D01*
X650477Y498460D01*
X650544Y498401D01*
X650609Y498339D01*
X650671Y498274D01*
X650730Y498207D01*
X650786Y498137D01*
X650839Y498065D01*
X650888Y497990D01*
X650935Y497914D01*
X650978Y497835D01*
X651018Y497755D01*
X651054Y497673D01*
X651086Y497589D01*
X651115Y497504D01*
X651140Y497418D01*
X651161Y497331D01*
X651179Y497243D01*
X651192Y497155D01*
X651202Y497066D01*
X651208Y496977D01*
X651210Y496887D01*
X651209Y496887D02*
X651209Y494834D01*
X651210Y494834D02*
X651208Y494744D01*
X651202Y494655D01*
X651192Y494566D01*
X651179Y494478D01*
X651161Y494390D01*
X651140Y494303D01*
X651115Y494217D01*
X651086Y494132D01*
X651054Y494048D01*
X651018Y493966D01*
X650978Y493886D01*
X650935Y493808D01*
X650888Y493731D01*
X650839Y493656D01*
X650786Y493584D01*
X650730Y493514D01*
X650671Y493447D01*
X650609Y493382D01*
X650544Y493320D01*
X650477Y493261D01*
X650407Y493205D01*
X650335Y493152D01*
X650260Y493103D01*
X650184Y493056D01*
X650105Y493013D01*
X650025Y492973D01*
X649943Y492937D01*
X649859Y492905D01*
X649774Y492876D01*
X649688Y492851D01*
X649601Y492830D01*
X649513Y492812D01*
X649425Y492799D01*
X649336Y492789D01*
X649247Y492783D01*
X649157Y492781D01*
X649067Y492783D01*
X648978Y492789D01*
X648889Y492799D01*
X648801Y492812D01*
X648713Y492830D01*
X648626Y492851D01*
X648540Y492876D01*
X648455Y492905D01*
X648371Y492937D01*
X648289Y492973D01*
X648209Y493013D01*
X648131Y493056D01*
X648054Y493103D01*
X647979Y493152D01*
X647907Y493205D01*
X647837Y493261D01*
X647770Y493320D01*
X647705Y493382D01*
X647643Y493447D01*
X647584Y493514D01*
X647528Y493584D01*
X647475Y493656D01*
X647426Y493731D01*
X647379Y493808D01*
X647336Y493886D01*
X647296Y493966D01*
X647260Y494048D01*
X647228Y494132D01*
X647199Y494217D01*
X647174Y494303D01*
X647153Y494390D01*
X647135Y494478D01*
X647122Y494566D01*
X647112Y494655D01*
X647106Y494744D01*
X647104Y494834D01*
X601236Y487019D02*
X595077Y477781D01*
X601236Y477781D02*
X595077Y487019D01*
X605357Y487019D02*
X605357Y477781D01*
X606383Y477781D02*
X604330Y477781D01*
X604330Y487019D02*
X606383Y487019D01*
X612557Y487019D02*
X609477Y477781D01*
X615636Y477781D02*
X612557Y487019D01*
X614866Y480091D02*
X610247Y480091D01*
X618990Y480347D02*
X618990Y484453D01*
X618991Y484453D02*
X618993Y484552D01*
X618999Y484652D01*
X619008Y484751D01*
X619022Y484849D01*
X619039Y484947D01*
X619060Y485045D01*
X619085Y485141D01*
X619114Y485236D01*
X619146Y485331D01*
X619182Y485423D01*
X619221Y485515D01*
X619264Y485605D01*
X619310Y485693D01*
X619360Y485779D01*
X619413Y485863D01*
X619469Y485945D01*
X619529Y486025D01*
X619591Y486102D01*
X619657Y486177D01*
X619725Y486250D01*
X619796Y486319D01*
X619870Y486386D01*
X619946Y486450D01*
X620025Y486511D01*
X620106Y486569D01*
X620189Y486624D01*
X620274Y486675D01*
X620361Y486723D01*
X620450Y486768D01*
X620541Y486809D01*
X620633Y486847D01*
X620726Y486881D01*
X620821Y486911D01*
X620917Y486938D01*
X621014Y486961D01*
X621111Y486980D01*
X621210Y486995D01*
X621309Y487007D01*
X621408Y487015D01*
X621507Y487019D01*
X621607Y487019D01*
X621706Y487015D01*
X621805Y487007D01*
X621904Y486995D01*
X622003Y486980D01*
X622100Y486961D01*
X622197Y486938D01*
X622293Y486911D01*
X622388Y486881D01*
X622481Y486847D01*
X622573Y486809D01*
X622664Y486768D01*
X622753Y486723D01*
X622840Y486675D01*
X622925Y486624D01*
X623008Y486569D01*
X623089Y486511D01*
X623168Y486450D01*
X623244Y486386D01*
X623318Y486319D01*
X623389Y486250D01*
X623457Y486177D01*
X623523Y486102D01*
X623585Y486025D01*
X623645Y485945D01*
X623701Y485863D01*
X623754Y485779D01*
X623804Y485693D01*
X623850Y485605D01*
X623893Y485515D01*
X623932Y485423D01*
X623968Y485331D01*
X624000Y485236D01*
X624029Y485141D01*
X624054Y485045D01*
X624075Y484947D01*
X624092Y484849D01*
X624106Y484751D01*
X624115Y484652D01*
X624121Y484552D01*
X624123Y484453D01*
X624123Y480347D01*
X624121Y480248D01*
X624115Y480148D01*
X624106Y480049D01*
X624092Y479951D01*
X624075Y479853D01*
X624054Y479755D01*
X624029Y479659D01*
X624000Y479564D01*
X623968Y479469D01*
X623932Y479377D01*
X623893Y479285D01*
X623850Y479195D01*
X623804Y479107D01*
X623754Y479021D01*
X623701Y478937D01*
X623645Y478855D01*
X623585Y478775D01*
X623523Y478698D01*
X623457Y478623D01*
X623389Y478550D01*
X623318Y478481D01*
X623244Y478414D01*
X623168Y478350D01*
X623089Y478289D01*
X623008Y478231D01*
X622925Y478176D01*
X622840Y478125D01*
X622753Y478077D01*
X622664Y478032D01*
X622573Y477991D01*
X622481Y477953D01*
X622388Y477919D01*
X622293Y477889D01*
X622197Y477862D01*
X622100Y477839D01*
X622003Y477820D01*
X621904Y477805D01*
X621805Y477793D01*
X621706Y477785D01*
X621607Y477781D01*
X621507Y477781D01*
X621408Y477785D01*
X621309Y477793D01*
X621210Y477805D01*
X621111Y477820D01*
X621014Y477839D01*
X620917Y477862D01*
X620821Y477889D01*
X620726Y477919D01*
X620633Y477953D01*
X620541Y477991D01*
X620450Y478032D01*
X620361Y478077D01*
X620274Y478125D01*
X620189Y478176D01*
X620106Y478231D01*
X620025Y478289D01*
X619946Y478350D01*
X619870Y478414D01*
X619796Y478481D01*
X619725Y478550D01*
X619657Y478623D01*
X619591Y478698D01*
X619529Y478775D01*
X619469Y478855D01*
X619413Y478937D01*
X619360Y479021D01*
X619310Y479107D01*
X619264Y479195D01*
X619221Y479285D01*
X619182Y479377D01*
X619146Y479469D01*
X619114Y479564D01*
X619085Y479659D01*
X619060Y479755D01*
X619039Y479853D01*
X619022Y479951D01*
X619008Y480049D01*
X618999Y480148D01*
X618993Y480248D01*
X618991Y480347D01*
D12*
X503410Y556510D03*
D10*
X498664Y339604D02*
X498657Y338990D01*
X498634Y338377D01*
X498597Y337764D01*
X498545Y337153D01*
X498479Y336542D01*
X498397Y335934D01*
X498301Y335328D01*
X498191Y334724D01*
X498066Y334123D01*
X497926Y333525D01*
X497772Y332931D01*
X497603Y332341D01*
X497421Y331755D01*
X497224Y331174D01*
X497013Y330597D01*
X496789Y330026D01*
X496551Y329460D01*
X496299Y328900D01*
X496033Y328347D01*
X495755Y327800D01*
X495463Y327260D01*
X495158Y326727D01*
X494840Y326202D01*
X494510Y325684D01*
X494168Y325175D01*
X493813Y324674D01*
X493446Y324182D01*
X493068Y323699D01*
X492678Y323225D01*
X492276Y322761D01*
X491864Y322306D01*
X491440Y321862D01*
X491006Y321428D01*
X490562Y321004D01*
X490107Y320592D01*
X489643Y320190D01*
X489169Y319800D01*
X488686Y319422D01*
X488194Y319055D01*
X487693Y318700D01*
X487184Y318358D01*
X486666Y318028D01*
X486141Y317710D01*
X485608Y317405D01*
X485068Y317113D01*
X484521Y316835D01*
X483968Y316569D01*
X483408Y316317D01*
X482842Y316079D01*
X482271Y315855D01*
X481694Y315644D01*
X481113Y315447D01*
X480527Y315265D01*
X479937Y315096D01*
X479343Y314942D01*
X478745Y314802D01*
X478144Y314677D01*
X477540Y314567D01*
X476934Y314471D01*
X476326Y314389D01*
X475715Y314323D01*
X475104Y314271D01*
X474491Y314234D01*
X473878Y314211D01*
X473264Y314204D01*
X320864Y314204D01*
X320250Y314211D01*
X319637Y314234D01*
X319024Y314271D01*
X318413Y314323D01*
X317802Y314389D01*
X317194Y314471D01*
X316588Y314567D01*
X315984Y314677D01*
X315383Y314802D01*
X314785Y314942D01*
X314191Y315096D01*
X313601Y315265D01*
X313015Y315447D01*
X312434Y315644D01*
X311857Y315855D01*
X311286Y316079D01*
X310720Y316317D01*
X310160Y316569D01*
X309607Y316835D01*
X309060Y317113D01*
X308520Y317405D01*
X307987Y317710D01*
X307462Y318028D01*
X306944Y318358D01*
X306435Y318700D01*
X305934Y319055D01*
X305442Y319422D01*
X304959Y319800D01*
X304485Y320190D01*
X304021Y320592D01*
X303566Y321004D01*
X303122Y321428D01*
X302688Y321862D01*
X302264Y322306D01*
X301852Y322761D01*
X301450Y323225D01*
X301060Y323699D01*
X300682Y324182D01*
X300315Y324674D01*
X299960Y325175D01*
X299618Y325684D01*
X299288Y326202D01*
X298970Y326727D01*
X298665Y327260D01*
X298373Y327800D01*
X298095Y328347D01*
X297829Y328900D01*
X297577Y329460D01*
X297339Y330026D01*
X297115Y330597D01*
X296904Y331174D01*
X296707Y331755D01*
X296525Y332341D01*
X296356Y332931D01*
X296202Y333525D01*
X296062Y334123D01*
X295937Y334724D01*
X295827Y335328D01*
X295731Y335934D01*
X295649Y336542D01*
X295583Y337153D01*
X295531Y337764D01*
X295494Y338377D01*
X295471Y338990D01*
X295464Y339604D01*
X295464Y568204D01*
X295471Y568818D01*
X295494Y569431D01*
X295531Y570044D01*
X295583Y570655D01*
X295649Y571266D01*
X295731Y571874D01*
X295827Y572480D01*
X295937Y573084D01*
X296062Y573685D01*
X296202Y574283D01*
X296356Y574877D01*
X296525Y575467D01*
X296707Y576053D01*
X296904Y576634D01*
X297115Y577211D01*
X297339Y577782D01*
X297577Y578348D01*
X297829Y578908D01*
X298095Y579461D01*
X298373Y580008D01*
X298665Y580548D01*
X298970Y581081D01*
X299288Y581606D01*
X299618Y582124D01*
X299960Y582633D01*
X300315Y583134D01*
X300682Y583626D01*
X301060Y584109D01*
X301450Y584583D01*
X301852Y585047D01*
X302264Y585502D01*
X302688Y585946D01*
X303122Y586380D01*
X303566Y586804D01*
X304021Y587216D01*
X304485Y587618D01*
X304959Y588008D01*
X305442Y588386D01*
X305934Y588753D01*
X306435Y589108D01*
X306944Y589450D01*
X307462Y589780D01*
X307987Y590098D01*
X308520Y590403D01*
X309060Y590695D01*
X309607Y590973D01*
X310160Y591239D01*
X310720Y591491D01*
X311286Y591729D01*
X311857Y591953D01*
X312434Y592164D01*
X313015Y592361D01*
X313601Y592543D01*
X314191Y592712D01*
X314785Y592866D01*
X315383Y593006D01*
X315984Y593131D01*
X316588Y593241D01*
X317194Y593337D01*
X317802Y593419D01*
X318413Y593485D01*
X319024Y593537D01*
X319637Y593574D01*
X320250Y593597D01*
X320864Y593604D01*
X473264Y593604D01*
X473878Y593597D01*
X474491Y593574D01*
X475104Y593537D01*
X475715Y593485D01*
X476326Y593419D01*
X476934Y593337D01*
X477540Y593241D01*
X478144Y593131D01*
X478745Y593006D01*
X479343Y592866D01*
X479937Y592712D01*
X480527Y592543D01*
X481113Y592361D01*
X481694Y592164D01*
X482271Y591953D01*
X482842Y591729D01*
X483408Y591491D01*
X483968Y591239D01*
X484521Y590973D01*
X485068Y590695D01*
X485608Y590403D01*
X486141Y590098D01*
X486666Y589780D01*
X487184Y589450D01*
X487693Y589108D01*
X488194Y588753D01*
X488686Y588386D01*
X489169Y588008D01*
X489643Y587618D01*
X490107Y587216D01*
X490562Y586804D01*
X491006Y586380D01*
X491440Y585946D01*
X491864Y585502D01*
X492276Y585047D01*
X492678Y584583D01*
X493068Y584109D01*
X493446Y583626D01*
X493813Y583134D01*
X494168Y582633D01*
X494510Y582124D01*
X494840Y581606D01*
X495158Y581081D01*
X495463Y580548D01*
X495755Y580008D01*
X496033Y579461D01*
X496299Y578908D01*
X496551Y578348D01*
X496789Y577782D01*
X497013Y577211D01*
X497224Y576634D01*
X497421Y576053D01*
X497603Y575467D01*
X497772Y574877D01*
X497926Y574283D01*
X498066Y573685D01*
X498191Y573084D01*
X498301Y572480D01*
X498397Y571874D01*
X498479Y571266D01*
X498545Y570655D01*
X498597Y570044D01*
X498634Y569431D01*
X498657Y568818D01*
X498664Y568204D01*
X498664Y339604D01*
X520700Y330200D02*
X520707Y330814D01*
X520730Y331427D01*
X520767Y332040D01*
X520819Y332651D01*
X520885Y333262D01*
X520967Y333870D01*
X521063Y334476D01*
X521173Y335080D01*
X521298Y335681D01*
X521438Y336279D01*
X521592Y336873D01*
X521761Y337463D01*
X521943Y338049D01*
X522140Y338630D01*
X522351Y339207D01*
X522575Y339778D01*
X522813Y340344D01*
X523065Y340904D01*
X523331Y341457D01*
X523609Y342004D01*
X523901Y342544D01*
X524206Y343077D01*
X524524Y343602D01*
X524854Y344120D01*
X525196Y344629D01*
X525551Y345130D01*
X525918Y345622D01*
X526296Y346105D01*
X526686Y346579D01*
X527088Y347043D01*
X527500Y347498D01*
X527924Y347942D01*
X528358Y348376D01*
X528802Y348800D01*
X529257Y349212D01*
X529721Y349614D01*
X530195Y350004D01*
X530678Y350382D01*
X531170Y350749D01*
X531671Y351104D01*
X532180Y351446D01*
X532698Y351776D01*
X533223Y352094D01*
X533756Y352399D01*
X534296Y352691D01*
X534843Y352969D01*
X535396Y353235D01*
X535956Y353487D01*
X536522Y353725D01*
X537093Y353949D01*
X537670Y354160D01*
X538251Y354357D01*
X538837Y354539D01*
X539427Y354708D01*
X540021Y354862D01*
X540619Y355002D01*
X541220Y355127D01*
X541824Y355237D01*
X542430Y355333D01*
X543038Y355415D01*
X543649Y355481D01*
X544260Y355533D01*
X544873Y355570D01*
X545486Y355593D01*
X546100Y355600D01*
X685800Y355600D01*
X686414Y355593D01*
X687027Y355570D01*
X687640Y355533D01*
X688251Y355481D01*
X688862Y355415D01*
X689470Y355333D01*
X690076Y355237D01*
X690680Y355127D01*
X691281Y355002D01*
X691879Y354862D01*
X692473Y354708D01*
X693063Y354539D01*
X693649Y354357D01*
X694230Y354160D01*
X694807Y353949D01*
X695378Y353725D01*
X695944Y353487D01*
X696504Y353235D01*
X697057Y352969D01*
X697604Y352691D01*
X698144Y352399D01*
X698677Y352094D01*
X699202Y351776D01*
X699720Y351446D01*
X700229Y351104D01*
X700730Y350749D01*
X701222Y350382D01*
X701705Y350004D01*
X702179Y349614D01*
X702643Y349212D01*
X703098Y348800D01*
X703542Y348376D01*
X703976Y347942D01*
X704400Y347498D01*
X704812Y347043D01*
X705214Y346579D01*
X705604Y346105D01*
X705982Y345622D01*
X706349Y345130D01*
X706704Y344629D01*
X707046Y344120D01*
X707376Y343602D01*
X707694Y343077D01*
X707999Y342544D01*
X708291Y342004D01*
X708569Y341457D01*
X708835Y340904D01*
X709087Y340344D01*
X709325Y339778D01*
X709549Y339207D01*
X709760Y338630D01*
X709957Y338049D01*
X710139Y337463D01*
X710308Y336873D01*
X710462Y336279D01*
X710602Y335681D01*
X710727Y335080D01*
X710837Y334476D01*
X710933Y333870D01*
X711015Y333262D01*
X711081Y332651D01*
X711133Y332040D01*
X711170Y331427D01*
X711193Y330814D01*
X711200Y330200D01*
X711200Y152400D01*
X711193Y151786D01*
X711170Y151173D01*
X711133Y150560D01*
X711081Y149949D01*
X711015Y149338D01*
X710933Y148730D01*
X710837Y148124D01*
X710727Y147520D01*
X710602Y146919D01*
X710462Y146321D01*
X710308Y145727D01*
X710139Y145137D01*
X709957Y144551D01*
X709760Y143970D01*
X709549Y143393D01*
X709325Y142822D01*
X709087Y142256D01*
X708835Y141696D01*
X708569Y141143D01*
X708291Y140596D01*
X707999Y140056D01*
X707694Y139523D01*
X707376Y138998D01*
X707046Y138480D01*
X706704Y137971D01*
X706349Y137470D01*
X705982Y136978D01*
X705604Y136495D01*
X705214Y136021D01*
X704812Y135557D01*
X704400Y135102D01*
X703976Y134658D01*
X703542Y134224D01*
X703098Y133800D01*
X702643Y133388D01*
X702179Y132986D01*
X701705Y132596D01*
X701222Y132218D01*
X700730Y131851D01*
X700229Y131496D01*
X699720Y131154D01*
X699202Y130824D01*
X698677Y130506D01*
X698144Y130201D01*
X697604Y129909D01*
X697057Y129631D01*
X696504Y129365D01*
X695944Y129113D01*
X695378Y128875D01*
X694807Y128651D01*
X694230Y128440D01*
X693649Y128243D01*
X693063Y128061D01*
X692473Y127892D01*
X691879Y127738D01*
X691281Y127598D01*
X690680Y127473D01*
X690076Y127363D01*
X689470Y127267D01*
X688862Y127185D01*
X688251Y127119D01*
X687640Y127067D01*
X687027Y127030D01*
X686414Y127007D01*
X685800Y127000D01*
X546100Y127000D01*
X545486Y127007D01*
X544873Y127030D01*
X544260Y127067D01*
X543649Y127119D01*
X543038Y127185D01*
X542430Y127267D01*
X541824Y127363D01*
X541220Y127473D01*
X540619Y127598D01*
X540021Y127738D01*
X539427Y127892D01*
X538837Y128061D01*
X538251Y128243D01*
X537670Y128440D01*
X537093Y128651D01*
X536522Y128875D01*
X535956Y129113D01*
X535396Y129365D01*
X534843Y129631D01*
X534296Y129909D01*
X533756Y130201D01*
X533223Y130506D01*
X532698Y130824D01*
X532180Y131154D01*
X531671Y131496D01*
X531170Y131851D01*
X530678Y132218D01*
X530195Y132596D01*
X529721Y132986D01*
X529257Y133388D01*
X528802Y133800D01*
X528358Y134224D01*
X527924Y134658D01*
X527500Y135102D01*
X527088Y135557D01*
X526686Y136021D01*
X526296Y136495D01*
X525918Y136978D01*
X525551Y137470D01*
X525196Y137971D01*
X524854Y138480D01*
X524524Y138998D01*
X524206Y139523D01*
X523901Y140056D01*
X523609Y140596D01*
X523331Y141143D01*
X523065Y141696D01*
X522813Y142256D01*
X522575Y142822D01*
X522351Y143393D01*
X522140Y143970D01*
X521943Y144551D01*
X521761Y145137D01*
X521592Y145727D01*
X521438Y146321D01*
X521298Y146919D01*
X521173Y147520D01*
X521063Y148124D01*
X520967Y148730D01*
X520885Y149338D01*
X520819Y149949D01*
X520767Y150560D01*
X520730Y151173D01*
X520707Y151786D01*
X520700Y152400D01*
X520700Y330200D01*
D13*
X330200Y279400D02*
X330200Y228600D01*
X330200Y279400D02*
X457200Y279400D01*
X457200Y228600D01*
X330200Y228600D01*
M02*
