G04 EAGLE Gerber RS-274X export*
G75*
%MOMM*%
%FSLAX34Y34*%
%LPD*%
%INSoldermask Top*%
%IPPOS*%
%AMOC8*
5,1,8,0,0,1.08239X$1,22.5*%
G01*
G04 Define Apertures*
%ADD10C,3.403200*%
%ADD11C,1.903200*%
%ADD12C,1.711200*%
%ADD13C,1.711200*%
%ADD14C,2.387600*%
D10*
X310000Y210000D03*
X740000Y140000D03*
D11*
X533400Y546100D02*
X516400Y546100D01*
X516400Y520700D02*
X533400Y520700D01*
X533400Y495300D02*
X516400Y495300D01*
X516400Y469900D02*
X533400Y469900D01*
X533400Y444500D02*
X516400Y444500D01*
X516400Y419100D02*
X533400Y419100D01*
X533400Y393700D02*
X516400Y393700D01*
X685800Y393700D02*
X702800Y393700D01*
X702800Y419100D02*
X685800Y419100D01*
X685800Y444500D02*
X702800Y444500D01*
X702800Y469900D02*
X685800Y469900D01*
X685800Y495300D02*
X702800Y495300D01*
X702800Y520700D02*
X685800Y520700D01*
X685800Y546100D02*
X702800Y546100D01*
D12*
X480804Y339604D02*
X465724Y339604D01*
X465724Y365004D02*
X480804Y365004D01*
X480804Y390404D02*
X465724Y390404D01*
X465724Y415804D02*
X480804Y415804D01*
X480804Y441204D02*
X465724Y441204D01*
X465724Y466604D02*
X480804Y466604D01*
X480804Y492004D02*
X465724Y492004D01*
X465724Y517404D02*
X480804Y517404D01*
X480804Y542804D02*
X465724Y542804D01*
X465724Y568204D02*
X480804Y568204D01*
X328404Y390404D02*
X313324Y390404D01*
X313324Y415804D02*
X328404Y415804D01*
X328404Y441204D02*
X313324Y441204D01*
X313324Y466604D02*
X328404Y466604D01*
X328404Y492004D02*
X313324Y492004D01*
X313324Y517404D02*
X328404Y517404D01*
X538560Y152400D02*
X553640Y152400D01*
X563960Y152400D02*
X579040Y152400D01*
X653960Y152400D02*
X669040Y152400D01*
X679360Y152400D02*
X694440Y152400D01*
X553640Y332400D02*
X538560Y332400D01*
X563960Y332400D02*
X579040Y332400D01*
X653960Y332400D02*
X669040Y332400D01*
X679360Y332400D02*
X694440Y332400D01*
D13*
X342900Y254000D03*
X368300Y254000D03*
X393700Y254000D03*
X419100Y254000D03*
X444500Y254000D03*
D14*
X734850Y502600D03*
X734850Y528000D03*
X734850Y553400D03*
X736600Y461800D03*
X736600Y391800D03*
X737400Y349400D03*
X737400Y309400D03*
M02*
